<svg viewBox="0 0 40 41" fill="none" xmlns="http://www.w3.org/2000/svg">
<path d="M30.5951 7.14062C30.1335 7.14062 29.6823 7.27748 29.2985 7.53392C28.9147 7.79035 28.6156 8.15484 28.439 8.58127C28.2624 9.0077 28.2162 9.47694 28.3062 9.92964C28.3962 10.3823 28.6185 10.7982 28.9449 11.1245C29.2713 11.4509 29.6871 11.6732 30.1398 11.7632C30.5925 11.8533 31.0617 11.807 31.4881 11.6304C31.9146 11.4538 32.2791 11.1547 32.5355 10.7709C32.7919 10.3871 32.9288 9.93591 32.9288 9.47435C32.9288 8.85541 32.6829 8.26181 32.2453 7.82415C31.8076 7.3865 31.214 7.14062 30.5951 7.14062Z" fill="white"/>
<path d="M20.1633 10.1992C18.207 10.1947 16.2933 10.7715 14.6654 11.8565C13.0375 12.9415 11.7686 14.4858 11.02 16.2933C10.2713 18.1008 10.0766 20.09 10.4606 22.0083C10.8446 23.9267 11.7899 25.6877 13.1766 27.0677C14.5632 28.4478 16.3287 29.3848 18.2488 29.7596C20.169 30.1345 22.1572 29.9303 23.9611 29.1731C25.765 28.4159 27.3032 27.1397 28.3805 25.5066C29.4578 23.8736 30.0255 21.9572 30.0117 20.0009C29.9932 17.3989 28.9482 14.9095 27.104 13.074C25.2597 11.2385 22.7653 10.2053 20.1633 10.1992ZM20.1633 26.3719C18.9115 26.3766 17.6865 26.0096 16.6434 25.3174C15.6003 24.6253 14.786 23.6392 14.3038 22.484C13.8215 21.3288 13.6929 20.0564 13.9343 18.8281C14.1757 17.5998 14.7762 16.4707 15.6597 15.5839C16.5433 14.697 17.6701 14.0924 18.8976 13.8465C20.125 13.6005 21.3978 13.7244 22.5548 14.2024C23.7118 14.6804 24.7009 15.491 25.3969 16.5315C26.0929 17.572 26.4644 18.7957 26.4644 20.0476C26.4461 21.7109 25.7756 23.3005 24.5972 24.4745C23.4189 25.6486 21.8267 26.3131 20.1633 26.3253V26.3719Z" fill="white"/>
<path d="M27.9813 40.0233H12.0187C8.83302 40.0172 5.77961 38.749 3.52701 36.4964C1.2744 34.2438 0.00616779 31.1903 0 28.0047V12.0187C0.00616779 8.83302 1.2744 5.77961 3.52701 3.52701C5.77961 1.2744 8.83302 0.00616779 12.0187 0H27.9813C31.167 0.00616779 34.2204 1.2744 36.473 3.52701C38.7256 5.77961 39.9938 8.83302 40 12.0187V28.0047C39.9938 31.1903 38.7256 34.2438 36.473 36.4964C34.2204 38.749 31.167 40.0172 27.9813 40.0233ZM12.0187 3.75729C9.82951 3.76345 7.73177 4.63582 6.1838 6.1838C4.63582 7.73177 3.76345 9.82951 3.75729 12.0187V28.0047C3.76347 30.1917 4.6366 32.287 6.18524 33.8313C7.73388 35.3755 9.83166 36.2427 12.0187 36.2427H27.9813C30.1684 36.2427 32.2661 35.3755 33.8148 33.8313C35.3634 32.287 36.2365 30.1917 36.2427 28.0047V12.0187C36.2365 9.82951 35.3642 7.73177 33.8162 6.1838C32.2682 4.63582 30.1705 3.76345 27.9813 3.75729H12.0187Z" fill="white"/>
</svg>
