<svg width="412" height="117" viewBox="0 0 412 117" fill="none" xmlns="http://www.w3.org/2000/svg">
<rect x="57" y="21" width="355" height="88" rx="16" fill="#2A2A2A"/>
<rect x="85" y="90" width="177" height="6" rx="3" fill="#4C4C4C"/>
<rect x="85" y="77" width="259" height="6" rx="3" fill="#4C4C4C"/>
<rect x="85" y="64" width="259" height="6" rx="3" fill="#4C4C4C"/>
<rect x="85" y="34" width="259" height="15" rx="7.5" fill="#4C4C4C"/>
<path d="M65.8561 12.497C66.2211 11.502 66.4331 10.433 66.4331 9.312C66.4331 4.169 62.2641 0 57.1211 0C51.9781 0 47.8091 4.169 47.8091 9.312C47.8091 10.434 48.0211 11.502 48.3851 12.497C51.1681 12.662 54.0941 12.752 57.1201 12.752C60.1471 12.752 63.0741 12.662 65.8561 12.497Z" fill="url(#paint0_linear_0_1)"/>
<path d="M114.242 104.558C112.518 67.8 100.025 100.119 91.46 46.828C86.897 18.433 69.846 7.95703 57.121 7.95703C44.396 7.95703 27.346 18.433 22.782 46.828C14.217 100.119 1.723 67.8 0 104.558H114.242Z" fill="url(#paint1_linear_0_1)"/>
<path opacity="0.3" d="M71.779 80.5229C52.606 75.4219 32.314 75.3439 20.826 57.2849C12.43 95.7109 1.596 70.5139 0 104.558H94.939C88.25 99.8399 79.628 82.6109 71.779 80.5229Z" fill="#510212"/>
<path d="M57.121 116.85C88.668 116.85 114.242 111.347 114.242 104.558C114.242 97.7694 88.668 92.2661 57.121 92.2661C25.5739 92.2661 0 97.7694 0 104.558C0 111.347 25.5739 116.85 57.121 116.85Z" fill="url(#paint2_linear_0_1)"/>
<path d="M41.919 92.7089C41.284 94.4409 40.916 96.2999 40.916 98.2529C40.916 107.203 48.172 114.458 57.121 114.458C66.071 114.458 73.326 107.203 73.326 98.2529C73.326 96.3009 72.958 94.4419 72.323 92.7089C67.481 92.4219 62.387 92.2649 57.121 92.2649C51.855 92.2649 46.762 92.4219 41.919 92.7089Z" fill="url(#paint3_linear_0_1)"/>
<path opacity="0.3" d="M73.267 99.4239C73.295 99.0359 73.326 98.6479 73.326 98.2529C73.326 96.3009 72.958 94.4419 72.323 92.7089C67.481 92.4219 62.387 92.2649 57.121 92.2649C51.855 92.2649 46.762 92.4209 41.919 92.7089C41.284 94.4409 40.916 96.2999 40.916 98.2529C40.916 100.833 41.535 103.263 42.607 105.428C51.654 100.3 62.746 98.5779 73.267 99.4239Z" fill="#510212"/>
<path d="M66.4331 14.3369C66.4331 14.3369 79.9751 18.8429 82.6951 36.6749C82.6951 36.6749 87.0391 59.8389 88.7401 65.9919C92.0241 77.8779 97.5141 79.4919 97.5051 84.8569L80.9361 81.7079C80.9361 81.7079 80.6141 76.8689 78.3131 71.4319C74.9881 63.5739 73.3271 39.3099 72.5701 32.5939C71.3611 21.8649 66.4331 14.3369 66.4331 14.3369Z" fill="url(#paint4_linear_0_1)"/>
<path d="M390.667 66.6001L387.875 65.7667C387.682 65.0929 387.416 64.442 387.083 63.8251L388.45 61.2668C388.501 61.1702 388.52 61.0597 388.503 60.9516C388.487 60.8435 388.436 60.7436 388.358 60.6668L386.367 58.6668C386.29 58.589 386.19 58.5381 386.082 58.5216C385.974 58.5051 385.863 58.5238 385.767 58.5751L383.225 59.9334C382.602 59.5839 381.943 59.3044 381.258 59.1001L380.425 56.3418C380.39 56.2401 380.323 56.1523 380.235 56.0909C380.146 56.0295 380.041 55.9977 379.933 56.0001H377.117C377.008 56.0006 376.903 56.0357 376.816 56.1001C376.729 56.1646 376.665 56.2551 376.633 56.3585L375.8 59.1084C375.11 59.3116 374.445 59.5911 373.817 59.9418L371.317 58.5918C371.22 58.5405 371.11 58.5217 371.001 58.5382C370.893 58.5547 370.793 58.6057 370.717 58.6834L368.692 60.6584C368.614 60.7353 368.563 60.8352 368.546 60.9433C368.53 61.0513 368.549 61.1619 368.6 61.2584L369.95 63.7584C369.6 64.3838 369.32 65.0462 369.117 65.7334L366.358 66.5667C366.255 66.5987 366.164 66.6628 366.1 66.7497C366.036 66.8366 366.001 66.9419 366 67.0501V69.8667C366.001 69.9749 366.036 70.0802 366.1 70.1671C366.164 70.254 366.255 70.3181 366.358 70.3501L369.133 71.1834C369.339 71.8591 369.619 72.5102 369.967 73.125L368.6 75.7417C368.549 75.8383 368.53 75.9488 368.546 76.0569C368.563 76.165 368.614 76.2648 368.692 76.3417L370.683 78.3333C370.76 78.4111 370.86 78.462 370.968 78.4786C371.076 78.4951 371.187 78.4763 371.283 78.425L373.858 77.05C374.468 77.3784 375.11 77.641 375.775 77.8333L376.608 80.6417C376.64 80.7451 376.704 80.8356 376.791 80.9C376.878 80.9645 376.983 80.9995 377.092 81H379.908C380.016 80.9995 380.122 80.9645 380.209 80.9C380.296 80.8356 380.36 80.7451 380.392 80.6417L381.225 77.825C381.884 77.6322 382.521 77.3696 383.125 77.0417L385.717 78.425C385.813 78.4763 385.924 78.4951 386.032 78.4786C386.14 78.462 386.24 78.4111 386.317 78.3333L388.308 76.3417C388.386 76.2648 388.437 76.165 388.453 76.0569C388.47 75.9488 388.451 75.8383 388.4 75.7417L387.017 73.1584C387.348 72.5524 387.613 71.9126 387.808 71.25L390.617 70.4167C390.72 70.3848 390.81 70.3207 390.875 70.2338C390.939 70.1468 390.974 70.0416 390.975 69.9334V67.0917C390.98 66.9881 390.953 66.8855 390.898 66.7976C390.843 66.7097 390.762 66.6408 390.667 66.6001ZM378.525 73.0834C377.618 73.0834 376.732 72.8146 375.979 72.3109C375.225 71.8073 374.637 71.0915 374.291 70.254C373.944 69.4165 373.853 68.495 374.03 67.6059C374.207 66.7168 374.643 65.9002 375.284 65.2592C375.925 64.6182 376.742 64.1817 377.631 64.0048C378.52 63.828 379.441 63.9187 380.279 64.2656C381.116 64.6125 381.832 65.2 382.336 65.9537C382.839 66.7074 383.108 67.5936 383.108 68.5001C383.108 69.7156 382.625 70.8814 381.766 71.741C380.906 72.6005 379.741 73.0834 378.525 73.0834Z" fill="#949494"/>
<defs>
<linearGradient id="paint0_linear_0_1" x1="47.8095" y1="6.3754" x2="66.4331" y2="6.3754" gradientUnits="userSpaceOnUse">
<stop stop-color="#E10531"/>
<stop offset="0.1593" stop-color="#E10531" stop-opacity="0.93"/>
<stop offset="0.5149" stop-color="#E10531" stop-opacity="0.85"/>
<stop offset="0.8079" stop-color="#FF6382"/>
<stop offset="1" stop-color="#FF6382" stop-opacity="0.92"/>
</linearGradient>
<linearGradient id="paint1_linear_0_1" x1="0.0007" y1="56.2573" x2="114.242" y2="56.2573" gradientUnits="userSpaceOnUse">
<stop stop-color="#E10531"/>
<stop offset="1" stop-color="#FF9FB3"/>
</linearGradient>
<linearGradient id="paint2_linear_0_1" x1="56.1679" y1="87.3965" x2="57.9813" y2="120.038" gradientUnits="userSpaceOnUse">
<stop stop-color="#E10531"/>
<stop offset="1" stop-color="#FFC3CF"/>
</linearGradient>
<linearGradient id="paint3_linear_0_1" x1="57.1212" y1="91.0774" x2="57.1212" y2="115.256" gradientUnits="userSpaceOnUse">
<stop stop-color="#E10531"/>
<stop offset="0.1126" stop-color="#E10531" stop-opacity="0.92"/>
<stop offset="0.488" stop-color="#E10531" stop-opacity="0.85"/>
<stop offset="0.7972" stop-color="#FF6382"/>
<stop offset="1" stop-color="#FF0000"/>
</linearGradient>
<linearGradient id="paint4_linear_0_1" x1="62.7978" y1="54.3897" x2="92.1874" y2="47.0423" gradientUnits="userSpaceOnUse">
<stop stop-color="white"/>
<stop offset="1" stop-color="white" stop-opacity="0"/>
</linearGradient>
</defs>
</svg>
