<svg viewBox="0 0 2500 702" fill="none" xmlns="http://www.w3.org/2000/svg">
<path d="M733.197 0.174057H16.6744C12.2279 0.174057 7.98783 1.80974 4.8594 4.7476C3.33666 6.15297 2.11943 7.85667 1.28344 9.75268C0.447442 11.6487 0.0105687 13.6965 0 15.7686L0 686.238C0 690.367 1.74684 694.337 4.87528 697.259C8.00371 700.181 12.2438 701.833 16.6585 701.833H733.197C737.628 701.833 741.852 700.181 744.996 697.259C746.521 695.854 747.741 694.151 748.579 692.255C749.418 690.359 749.858 688.311 749.871 686.238V15.7686C749.871 11.6397 748.124 7.66959 744.996 4.7476C741.783 1.78582 737.567 0.151587 733.197 0.174057ZM499.914 452.352C499.914 456.481 498.167 460.451 495.023 463.373C491.819 466.329 487.615 467.962 483.256 467.946H266.616C262.201 467.946 257.961 466.295 254.832 463.373C253.307 461.969 252.087 460.266 251.248 458.37C250.409 456.474 249.97 454.425 249.957 452.352V249.655C249.957 245.526 251.704 241.556 254.832 238.634C257.961 235.696 262.201 234.06 266.616 234.06H483.256C487.67 234.06 491.911 235.696 495.023 238.634C496.552 240.036 497.776 241.738 498.618 243.634C499.459 245.531 499.901 247.58 499.914 249.655V452.352ZM2233.26 234.092H2016.62C2007.41 234.092 1999.94 241.079 1999.94 249.687V452.384C1999.94 460.991 2007.41 467.978 2016.62 467.978H2233.24C2242.45 467.978 2249.92 460.991 2249.92 452.384V249.687C2249.92 241.063 2242.45 234.092 2233.24 234.092H2233.26ZM1983.35 0.174057H1766.72C1757.51 0.174057 1750.05 7.16142 1750.05 15.7845V218.482C1750.05 227.089 1757.51 234.076 1766.72 234.076H1983.33C1992.54 234.076 2000.01 227.089 2000.01 218.482V15.7845C2000.01 7.16142 1992.54 0.189937 1983.33 0.189937L1983.35 0.174057ZM2483.34 0.174057H2266.7C2257.51 0.174057 2250.04 7.16142 2250.04 15.7845V218.482C2250.04 227.089 2257.51 234.076 2266.72 234.076H2483.33C2492.54 234.076 2500 227.089 2500 218.482V15.7845C2500 7.16142 2492.54 0.189937 2483.33 0.189937L2483.34 0.174057ZM1983.35 467.962H1766.72C1757.51 467.962 1750.05 474.95 1750.05 483.557V686.27C1750.05 694.877 1757.51 701.849 1766.72 701.849H1983.33C1992.54 701.849 2000.01 694.861 2000.01 686.27V483.557C2000.01 474.95 1992.56 467.962 1983.35 467.962ZM2483.34 467.962H2266.7C2257.51 467.962 2250.04 474.95 2250.04 483.557V686.27C2250.04 694.877 2257.51 701.849 2266.72 701.849H2483.33C2492.54 701.849 2500 694.861 2500 686.27V483.557C2500 474.95 2492.54 467.962 2483.33 467.962H2483.34ZM1608.11 0.174057H1391.5C1382.29 0.174057 1374.83 7.16142 1374.83 15.7845V218.482C1374.83 227.089 1382.29 234.076 1391.5 234.076H1608.11C1617.32 234.076 1624.78 227.089 1624.78 218.482V15.7845C1624.78 7.16142 1617.32 0.189937 1608.11 0.189937V0.174057ZM1608.11 467.962H1391.5C1382.29 467.962 1374.83 474.95 1374.83 483.557V686.27C1374.83 694.877 1382.29 701.849 1391.5 701.849H1608.11C1617.32 701.849 1624.78 694.861 1624.78 686.27V483.557C1624.78 474.95 1617.32 467.962 1608.11 467.962ZM1374.76 249.48C1374.76 245.351 1372.99 241.381 1369.87 238.443C1366.66 235.49 1362.45 233.861 1358.09 233.886H1124.79V15.7686C1124.79 11.6397 1123.04 7.66959 1119.92 4.7476C1116.71 1.7882 1112.5 0.154027 1108.13 0.174057H891.508C887.078 0.174057 882.838 1.80974 879.709 4.7476C878.184 6.15158 876.964 7.85465 876.125 9.75074C875.286 11.6468 874.847 13.6953 874.834 15.7686V685.889C874.834 690.018 876.581 693.988 879.709 696.91C882.838 699.832 887.078 701.483 891.508 701.483H1108.12C1112.55 701.483 1116.79 699.832 1119.92 696.91C1123.04 693.988 1124.79 690.018 1124.79 685.889V467.772H1358.07C1362.5 467.772 1366.74 466.12 1369.87 463.198C1371.4 461.794 1372.62 460.09 1373.46 458.194C1374.29 456.299 1374.73 454.25 1374.75 452.177L1374.76 249.48Z" fill="white"/>
</svg>
