<svg viewBox="0 0 2500 835" fill="none" xmlns="http://www.w3.org/2000/svg">
<path d="M1781.84 643.276V0.833496H1910.98V643.276H1781.84Z" fill="#F7A600"/>
<path d="M276.839 834.109H0V191.667H265.718C394.856 191.667 470.086 262.069 470.086 372.127C470.086 443.391 421.753 489.454 388.305 504.799C428.247 522.816 479.339 563.42 479.339 649.167C479.339 769.138 394.856 834.109 276.839 834.109ZM255.488 303.563H129.138V451.552H255.46C310.259 451.552 340.92 421.782 340.92 377.529C340.92 333.362 310.287 303.563 255.488 303.563ZM129.167 564.339V722.27H263.879C322.414 722.27 350.23 686.178 350.23 642.845C350.23 599.54 322.356 564.339 263.879 564.339H129.167ZM873.218 570.661V834.109H745V570.661L546.178 191.667H686.466L810.029 450.632L931.724 191.667H1071.98L873.218 570.661ZM1438.1 834.109H1161.26V191.667H1426.95C1556.09 191.667 1631.35 262.069 1631.35 372.127C1631.35 443.391 1583.02 489.454 1549.57 504.799C1589.51 522.816 1640.6 563.42 1640.6 649.167C1640.6 769.138 1556.12 834.109 1438.1 834.109ZM1416.75 303.563H1290.4V451.552H1416.75C1471.55 451.552 1502.21 421.782 1502.21 377.529C1502.21 333.362 1471.55 303.563 1416.75 303.563ZM1425.09 564.339H1290.37V722.27H1425.09C1483.65 722.27 1511.47 686.178 1511.47 642.845C1511.47 599.54 1483.65 564.339 1425.09 564.339ZM2327.18 303.592V834.167H2198.05V303.563H2025.29V191.667H2500V303.563L2327.18 303.592Z" fill="white"/>
</svg>
