<svg viewBox="0 0 2360 709" fill="none" xmlns="http://www.w3.org/2000/svg">
<path d="M876.2 376.3H677.7V202.3C677.7 188 666.1 176.4 651.8 176.4H584.6V654.7C584.6 669 596.2 680.6 610.5 680.6H677.7V457.5H876.3V654.6C876.1 668.9 887.5 680.7 901.8 680.9H969.4V202.3C969.4 188 957.8 176.4 943.5 176.4H876.2V376.3ZM1270.4 301.5V541.2C1270.6 563 1259.2 583.3 1240.4 594.5C1187.8 624.9 1133.3 586.8 1133.3 536.8V327.4C1133.3 313.1 1121.7 301.5 1107.4 301.5H1040.2V545.4C1040.4 624 1104 687.6 1182.6 688H1220.8C1299.5 687.8 1363.3 624 1363.5 545.3V327.4C1363.5 313.1 1351.9 301.5 1337.6 301.5H1270.4Z" fill="white"/>
<path d="M2354.3 680.9V341.3C2354.3 327 2342.7 315.4 2328.4 315.4H2261.2V654.8C2261.1 669.1 2272.6 680.8 2286.9 680.9H2354.3Z" fill="#2CA6E0"/>
<path d="M2355.72 247.475C2366.69 220.993 2354.11 190.632 2327.63 179.663C2301.15 168.693 2270.79 181.269 2259.82 207.751C2248.85 234.233 2261.42 264.594 2287.91 275.564C2314.39 286.533 2344.75 273.958 2355.72 247.475Z" fill="#2CA6E0"/>
<path d="M1603.7 301.3C1506.2 301.3 1426.4 371 1426.4 468.5V521.2C1426.4 618.7 1506.2 688 1603.7 688C1701.2 688 1781 618.7 1781 521.2V468.5C1781.1 371 1701.3 301.3 1603.7 301.3ZM1687.5 527.5C1687.5 573.6 1649.8 604.3 1603.6 604.3C1557.4 604.3 1519.8 573.6 1519.8 527.5V461.7C1519.8 415.6 1557.5 384.9 1603.6 384.9C1649.7 384.9 1687.5 415.6 1687.5 461.7V527.5Z" fill="white"/>
<path d="M2021.2 301.3C1992 301.1 1963.2 307.7 1936.9 320.4V202.8C1936.9 188.5 1925.3 176.9 1911 176.9H1843.8V521.2C1843.8 618.7 1923.6 688 2021.1 688C2118.6 688 2198.4 618.7 2198.4 521.2V468.5C2198.5 371 2118.9 301.3 2021.2 301.3ZM2105.1 527.5C2105.1 573.6 2067.4 604.3 2021.2 604.3C1975.1 604.3 1937.4 573.6 1937.4 527.5V461.7C1937.4 415.6 1975.1 384.9 2021.2 384.9C2067.3 384.9 2105.1 415.6 2105.1 461.7V527.5Z" fill="#2CA6E0"/>
<path d="M303.2 217.8C303.2 116.2 253.7 28.7001 216 0.300126C216 0.300126 213.1 -1.29987 213.4 2.80013C210.3 199.1 110 252.3 54.9001 323.9C-72.2999 489.3 45.9001 670.6 166.5 704.1C233.7 722.9 150.9 670.9 140.2 561.2C127.1 428.8 303.2 327.6 303.2 217.8Z" fill="white"/>
<path d="M361 284.7C360.2 284.2 359.1 283.8 358.4 285.1C356.3 309.8 331.1 362.6 299.1 411.2C190.6 575.8 252.4 655.2 287.2 697.9C307.4 722.6 287.2 697.9 337.6 672.6C399.9 634.8 440.3 569.4 446.3 496.8C456.2 379.8 386 306.1 361 284.7Z" fill="#2CA6E0"/>
</svg>
