<svg viewBox="0 0 402 1380" fill="none" xmlns="http://www.w3.org/2000/svg">
<path d="M98.3433 380L105.703 365.64H111.703L119.043 380H114.023L112.763 377.34H104.623L103.343 380H98.3433ZM106.223 373.96H111.143L108.683 368.82L106.223 373.96ZM120.594 380V367.98H125.214V370.6C126.434 368.42 127.954 367.58 130.074 367.58C131.194 367.58 132.014 367.76 132.994 368.18V372.2C131.674 371.72 130.874 371.6 129.894 371.6C128.554 371.6 126.814 371.98 125.214 374.12V380H120.594ZM134.969 380V364H139.589V370.34C140.749 368.6 142.809 367.58 145.429 367.58C149.749 367.58 152.549 370.08 152.549 373.98C152.549 377.86 149.749 380.4 145.429 380.4C142.809 380.4 140.749 379.38 139.589 377.62V380H134.969ZM139.589 373.98C139.589 375.54 141.189 376.56 143.849 376.56C146.289 376.56 147.709 375.54 147.709 373.98C147.709 372.42 146.289 371.42 143.849 371.42C141.189 371.42 139.589 372.42 139.589 373.98ZM154.52 380V367.98H159.14V380H154.52ZM154.52 366.76V364H159.14V366.76H154.52ZM168.52 380.4C165.06 380.4 163.16 379.08 163.16 376.4V371.36H160.78V367.98H163.16V365.78L167.76 364.58V367.98H172.64V371.36H167.76V374.72C167.76 375.82 168.26 376.6 169.6 376.6C170.7 376.6 171.26 376.5 172.64 376.2V379.88C171.52 380.16 170.08 380.4 168.52 380.4ZM174.598 380V367.98H179.218V370.6C180.438 368.42 181.958 367.58 184.078 367.58C185.198 367.58 186.018 367.76 186.998 368.18V372.2C185.678 371.72 184.878 371.6 183.898 371.6C182.558 371.6 180.818 371.98 179.218 374.12V380H174.598ZM193.568 380.42C190.448 380.42 188.028 379.2 188.028 376.4C188.028 373.2 191.408 372.28 194.848 372.28C196.808 372.28 198.668 372.52 200.308 372.94C200.248 371.38 199.088 370.86 196.668 370.86C194.468 370.86 192.408 371.22 189.568 371.88L189.008 368.58C191.668 368 194.528 367.58 197.548 367.58C202.608 367.58 204.968 369.28 204.968 373.74V380H200.308V378.42C198.188 379.76 195.528 380.42 193.568 380.42ZM192.868 376.16C192.868 376.86 193.548 377.34 195.128 377.34C196.528 377.34 198.888 376.84 200.308 376.36V375.36C198.528 375.08 196.988 374.86 195.488 374.86C193.548 374.86 192.868 375.24 192.868 376.16ZM215.997 385.2C213.237 385.2 210.597 384.88 207.377 384.2L208.077 380.78C211.257 381.38 213.117 381.6 215.177 381.6C218.537 381.6 219.697 380.86 219.697 379.06V377.68C218.537 379.4 216.477 380.4 213.877 380.4C209.557 380.4 206.757 377.9 206.757 374C206.757 370.12 209.557 367.58 213.877 367.58C216.477 367.58 218.537 368.6 219.697 370.32V367.98H224.317V378.82C224.317 383.16 221.837 385.2 215.997 385.2ZM211.597 374C211.597 375.56 213.017 376.56 215.457 376.56C217.937 376.56 219.497 375.68 219.697 374.3V373.7C219.497 372.32 217.937 371.42 215.457 371.42C213.017 371.42 211.597 372.44 211.597 374ZM234.793 380.4C229.433 380.4 226.013 377.9 226.033 374C226.033 370.06 229.453 367.58 234.773 367.58C240.373 367.58 243.613 370.12 243.613 374.92H230.793C231.193 376.48 232.713 377.18 235.073 377.18C236.973 377.18 238.513 376.64 238.993 375.74H243.513C242.553 378.84 239.933 380.42 234.793 380.4ZM230.893 372.7H238.833C238.293 371.34 236.953 370.8 234.953 370.8C232.773 370.8 231.393 371.38 230.893 372.7ZM253.348 380V365.64H264.448C268.188 365.64 269.368 367.08 269.368 369.16C269.368 370.88 268.368 371.96 266.888 372.48C268.688 372.94 270.188 373.94 270.188 376.04C270.188 378.38 268.788 380 265.268 380H253.348ZM258.048 376.6H263.768C264.628 376.6 265.308 376.54 265.308 375.42C265.308 374.3 264.588 374.24 263.768 374.24H258.048V376.6ZM258.048 371.38H262.968C263.948 371.38 264.668 371.3 264.668 370.18C264.668 369.1 263.988 369.04 262.968 369.04H258.048V371.38ZM280.516 380.4C275.236 380.4 271.776 377.88 271.776 373.98C271.776 370.08 275.236 367.58 280.516 367.58C285.796 367.58 289.256 370.08 289.256 373.98C289.256 377.88 285.796 380.4 280.516 380.4ZM276.416 373.98C276.416 375.7 278.036 376.8 280.516 376.8C282.996 376.8 284.616 375.7 284.616 373.98C284.616 372.28 282.996 371.18 280.516 371.18C278.036 371.18 276.416 372.28 276.416 373.98ZM297.758 380.4C294.298 380.4 292.398 379.08 292.398 376.4V371.36H290.018V367.98H292.398V365.78L296.998 364.58V367.98H301.878V371.36H296.998V374.72C296.998 375.82 297.498 376.6 298.838 376.6C299.938 376.6 300.498 376.5 301.878 376.2V379.88C300.758 380.16 299.318 380.4 297.758 380.4ZM135.189 432.4C129.429 432.4 126.409 431.12 126.309 427.26H129.089C129.089 429.52 130.889 430.4 135.189 430.4C138.929 430.4 140.489 429.78 140.489 428.08C140.489 426.4 139.329 426.16 135.049 425.88L134.249 425.82C128.689 425.48 126.729 424.36 126.729 421.48C126.729 418.66 129.469 417.46 134.449 417.46C139.849 417.46 142.569 419.06 142.649 422.36H139.889C139.889 420.14 137.909 419.46 134.229 419.46C130.789 419.46 129.489 420.02 129.489 421.48C129.489 423.14 130.689 423.5 134.609 423.78L135.449 423.84C140.469 424.2 143.249 424.6 143.249 428C143.249 431.36 140.209 432.4 135.189 432.4ZM145.73 432V420.18H148.37V432H145.73ZM145.73 418.38V416H148.37V418.38H145.73ZM151.511 432V420.18H154.311V422.74C155.831 420.84 158.171 419.78 161.211 419.78C165.011 419.78 167.331 421.32 167.331 425.98V432H164.531V426.92C164.531 423.44 163.171 422.12 159.951 422.12C156.611 422.12 154.311 423.94 154.311 427.02V432H151.511ZM178.504 437.2C175.884 437.2 173.964 437 170.524 436.5L170.864 434.5C174.384 434.96 175.844 435.1 178.044 435.1C182.324 435.1 183.484 433.84 183.484 431.38V429.52C182.264 431.34 180.004 432.4 177.164 432.4C172.764 432.4 169.924 429.92 169.924 426.1C169.924 422.28 172.764 419.78 177.164 419.78C180.004 419.78 182.264 420.86 183.484 422.66V420.18H186.104V431.24C186.104 435 184.284 437.2 178.504 437.2ZM172.824 426.1C172.824 428.5 174.804 430.06 178.004 430.06C181.224 430.06 183.264 428.68 183.484 426.5V425.7C183.264 423.5 181.224 422.12 178.004 422.12C174.804 422.12 172.824 423.68 172.824 426.1ZM202.11 424.88C202.11 422.68 200.53 422.12 197.55 422.12C195.51 422.12 193.39 422.6 190.57 423.34L190.17 420.88C192.91 420.16 195.57 419.78 197.93 419.78C202.81 419.78 204.89 421.4 204.89 425.26V432H202.11V430.56C199.91 431.74 197.31 432.42 194.83 432.42C191.19 432.42 189.21 431 189.21 428.44C189.21 425.72 191.59 424.28 195.83 424.28C197.75 424.28 199.91 424.6 202.11 425.18V424.88ZM192.11 428.26C192.11 429.72 193.27 430.48 195.49 430.48C197.43 430.48 199.71 429.84 202.11 428.7V427.14C199.43 426.48 198.07 426.26 195.91 426.26C193.31 426.26 192.11 426.8 192.11 428.26ZM207.937 436.88V420.18H210.577V422.68C211.797 420.86 214.077 419.78 216.917 419.78C221.317 419.78 224.157 422.26 224.157 426.08C224.157 429.9 221.317 432.4 216.917 432.4C214.077 432.4 211.797 431.32 210.577 429.48V436.88H207.937ZM210.577 426.08C210.577 428.5 212.657 430.06 216.077 430.06C219.277 430.06 221.257 428.5 221.257 426.08C221.257 423.68 219.277 422.12 216.077 422.12C212.657 422.12 210.577 423.68 210.577 426.08ZM234.644 432.4C229.784 432.4 226.524 429.92 226.524 426.1C226.524 422.26 229.784 419.78 234.644 419.78C239.484 419.78 242.744 422.26 242.744 426.1C242.744 429.92 239.484 432.4 234.644 432.4ZM229.164 426.1C229.164 428.64 231.384 430.3 234.644 430.3C237.884 430.3 240.104 428.64 240.104 426.1C240.104 423.54 237.884 421.88 234.644 421.88C231.384 421.88 229.164 423.54 229.164 426.1ZM245.32 432V420.18H247.96V422.5C249.6 420.42 251.32 419.78 253.3 419.78C254.56 419.78 255.52 419.98 256.42 420.3V422.6C255.2 422.22 254.28 422.1 253.2 422.1C251.78 422.1 249.96 422.48 247.96 424.6V432H245.32ZM265.896 432.4C260.776 432.4 257.656 430.06 257.656 426.1C257.656 422.14 260.836 419.78 265.756 419.78C270.716 419.78 273.736 422.22 273.736 427.06H260.516C260.916 429.16 262.836 430.28 265.976 430.28C268.556 430.28 270.296 429.48 270.816 428.12H273.556C272.836 430.8 270.216 432.4 265.896 432.4ZM260.556 425H270.876C270.396 422.84 268.636 421.88 265.776 421.88C262.896 421.88 261.036 422.88 260.556 425Z" fill="white"/>
<line x1="200" y1="896.002" x2="200" y2="689" stroke="url(#paint0_linear_0_1)" stroke-width="2"/>
<line x1="200" y1="340" x2="200" y2="222" stroke="url(#paint1_linear_0_1)" stroke-width="2"/>
<path d="M170.46 947V935.512H179.34C182.332 935.512 183.276 936.664 183.276 938.328C183.276 939.704 182.476 940.568 181.292 940.984C182.732 941.352 183.932 942.152 183.932 943.832C183.932 945.704 182.812 947 179.996 947H170.46ZM174.22 944.28H178.796C179.484 944.28 180.028 944.232 180.028 943.336C180.028 942.44 179.452 942.392 178.796 942.392H174.22V944.28ZM174.22 940.104H178.156C178.94 940.104 179.516 940.04 179.516 939.144C179.516 938.28 178.972 938.232 178.156 938.232H174.22V940.104ZM188.571 951.16C187.579 951.16 186.219 950.952 184.971 950.584V947.8C186.411 948.12 187.403 948.28 188.059 948.28C189.275 948.28 189.691 948.168 190.331 947H188.731L184.171 937.384H188.171L191.547 944.488L194.923 937.384H198.923L194.491 946.68C193.163 949.512 191.562 951.16 188.571 951.16ZM200.491 947V935.512H209.371C212.363 935.512 213.307 936.664 213.307 938.328C213.307 939.704 212.507 940.568 211.323 940.984C212.763 941.352 213.963 942.152 213.963 943.832C213.963 945.704 212.843 947 210.027 947H200.491ZM204.251 944.28H208.827C209.515 944.28 210.059 944.232 210.059 943.336C210.059 942.44 209.483 942.392 208.827 942.392H204.251V944.28ZM204.251 940.104H208.187C208.971 940.104 209.547 940.04 209.547 939.144C209.547 938.28 209.003 938.232 208.187 938.232H204.251V940.104ZM215.382 947V937.384H219.078V947H215.382ZM215.382 936.408V934.2H219.078V936.408H215.382ZM226.581 947.32C223.813 947.32 222.293 946.264 222.293 944.12V940.088H220.389V937.384H222.293V935.624L225.973 934.664V937.384H229.877V940.088H225.973V942.776C225.973 943.656 226.373 944.28 227.445 944.28C228.325 944.28 228.773 944.2 229.877 943.96V946.904C228.981 947.128 227.829 947.32 226.581 947.32ZM151.392 987.3C147.072 987.3 144.807 986.34 144.732 983.445H146.817C146.817 985.14 148.167 985.8 151.392 985.8C154.197 985.8 155.367 985.335 155.367 984.06C155.367 982.8 154.497 982.62 151.287 982.41L150.687 982.365C146.517 982.11 145.047 981.27 145.047 979.11C145.047 976.995 147.102 976.095 150.837 976.095C154.887 976.095 156.927 977.295 156.987 979.77H154.917C154.917 978.105 153.432 977.595 150.672 977.595C148.092 977.595 147.117 978.015 147.117 979.11C147.117 980.355 148.017 980.625 150.957 980.835L151.587 980.88C155.352 981.15 157.437 981.45 157.437 984C157.437 986.52 155.157 987.3 151.392 987.3ZM159.298 987V978.135H161.278V987H159.298ZM159.298 976.785V975H161.278V976.785H159.298ZM163.633 987V978.135H165.733V980.055C166.873 978.63 168.628 977.835 170.908 977.835C173.758 977.835 175.498 978.99 175.498 982.485V987H173.398V983.19C173.398 980.58 172.378 979.59 169.963 979.59C167.458 979.59 165.733 980.955 165.733 983.265V987H163.633ZM183.878 990.9C181.913 990.9 180.473 990.75 177.893 990.375L178.148 988.875C180.788 989.22 181.883 989.325 183.533 989.325C186.743 989.325 187.613 988.38 187.613 986.535V985.14C186.698 986.505 185.003 987.3 182.873 987.3C179.573 987.3 177.443 985.44 177.443 982.575C177.443 979.71 179.573 977.835 182.873 977.835C185.003 977.835 186.698 978.645 187.613 979.995V978.135H189.578V986.43C189.578 989.25 188.213 990.9 183.878 990.9ZM179.618 982.575C179.618 984.375 181.103 985.545 183.503 985.545C185.918 985.545 187.448 984.51 187.613 982.875V982.275C187.448 980.625 185.918 979.59 183.503 979.59C181.103 979.59 179.618 980.76 179.618 982.575ZM201.583 981.66C201.583 980.01 200.398 979.59 198.163 979.59C196.633 979.59 195.043 979.95 192.928 980.505L192.628 978.66C194.683 978.12 196.678 977.835 198.448 977.835C202.108 977.835 203.668 979.05 203.668 981.945V987H201.583V985.92C199.933 986.805 197.983 987.315 196.123 987.315C193.393 987.315 191.908 986.25 191.908 984.33C191.908 982.29 193.693 981.21 196.873 981.21C198.313 981.21 199.933 981.45 201.583 981.885V981.66ZM194.083 984.195C194.083 985.29 194.953 985.86 196.618 985.86C198.073 985.86 199.783 985.38 201.583 984.525V983.355C199.573 982.86 198.553 982.695 196.933 982.695C194.983 982.695 194.083 983.1 194.083 984.195ZM205.953 990.66V978.135H207.933V980.01C208.848 978.645 210.558 977.835 212.688 977.835C215.988 977.835 218.118 979.695 218.118 982.56C218.118 985.425 215.988 987.3 212.688 987.3C210.558 987.3 208.848 986.49 207.933 985.11V990.66H205.953ZM207.933 982.56C207.933 984.375 209.493 985.545 212.058 985.545C214.458 985.545 215.943 984.375 215.943 982.56C215.943 980.76 214.458 979.59 212.058 979.59C209.493 979.59 207.933 980.76 207.933 982.56ZM225.983 987.3C222.338 987.3 219.893 985.44 219.893 982.575C219.893 979.695 222.338 977.835 225.983 977.835C229.613 977.835 232.058 979.695 232.058 982.575C232.058 985.44 229.613 987.3 225.983 987.3ZM221.873 982.575C221.873 984.48 223.538 985.725 225.983 985.725C228.413 985.725 230.078 984.48 230.078 982.575C230.078 980.655 228.413 979.41 225.983 979.41C223.538 979.41 221.873 980.655 221.873 982.575ZM233.99 987V978.135H235.97V979.875C237.2 978.315 238.49 977.835 239.975 977.835C240.92 977.835 241.64 977.985 242.315 978.225V979.95C241.4 979.665 240.71 979.575 239.9 979.575C238.835 979.575 237.47 979.86 235.97 981.45V987H233.99ZM249.422 987.3C245.582 987.3 243.242 985.545 243.242 982.575C243.242 979.605 245.627 977.835 249.317 977.835C253.037 977.835 255.302 979.665 255.302 983.295H245.387C245.687 984.87 247.127 985.71 249.482 985.71C251.417 985.71 252.722 985.11 253.112 984.09H255.167C254.627 986.1 252.662 987.3 249.422 987.3ZM245.417 981.75H253.157C252.797 980.13 251.477 979.41 249.332 979.41C247.172 979.41 245.777 980.16 245.417 981.75Z" fill="white"/>
<path d="M166.749 13V1.512H170.509V5.672H177.389V1.512H181.149V13H177.389V8.824H170.509V13H166.749ZM197.078 3.384V13H193.334V10.84C192.134 12.312 190.486 13.32 187.83 13.32C184.966 13.32 183.014 12.072 183.014 8.536V3.384H186.758V7.128C186.758 9.256 187.478 10.248 189.702 10.248C192.038 10.248 193.334 9.224 193.334 7.176V3.384H197.078ZM205.373 13.32C201.149 13.32 198.381 11.304 198.381 8.184C198.381 5.064 201.149 3.064 205.373 3.064C209.597 3.064 212.365 5.064 212.365 8.184C212.365 11.304 209.597 13.32 205.373 13.32ZM202.093 8.184C202.093 9.56 203.389 10.44 205.373 10.44C207.357 10.44 208.653 9.56 208.653 8.184C208.653 6.824 207.357 5.944 205.373 5.944C203.389 5.944 202.093 6.824 202.093 8.184ZM213.936 13V0.2H217.632V5.272C218.56 3.88 220.208 3.064 222.304 3.064C225.76 3.064 228 5.064 228 8.184C228 11.288 225.76 13.32 222.304 13.32C220.208 13.32 218.56 12.504 217.632 11.096V13H213.936ZM217.632 8.184C217.632 9.432 218.912 10.248 221.04 10.248C222.992 10.248 224.128 9.432 224.128 8.184C224.128 6.936 222.992 6.136 221.04 6.136C218.912 6.136 217.632 6.936 217.632 8.184ZM229.577 13V3.384H233.273V13H229.577ZM229.577 2.408V0.2H233.273V2.408H229.577ZM168.303 44.075V42.365H180.573V44.075H175.443V53H173.448V44.075H168.303ZM186.037 53.3C182.392 53.3 179.947 51.44 179.947 48.575C179.947 45.695 182.392 43.835 186.037 43.835C189.667 43.835 192.112 45.695 192.112 48.575C192.112 51.44 189.667 53.3 186.037 53.3ZM181.927 48.575C181.927 50.48 183.592 51.725 186.037 51.725C188.467 51.725 190.132 50.48 190.132 48.575C190.132 46.655 188.467 45.41 186.037 45.41C183.592 45.41 181.927 46.655 181.927 48.575ZM194.117 53V41H196.097V48.575L202.517 44.135H205.532L200.522 47.615L205.532 53H203.102L199.097 48.605L196.097 50.69V53H194.117ZM209.859 56.9C209.094 56.9 208.224 56.765 207.204 56.51V54.995C208.344 55.22 208.974 55.325 209.604 55.325C210.999 55.325 211.344 54.725 212.244 53H211.374L206.739 44.135H208.884L212.874 51.785L216.864 44.135H219.009L214.314 53.15C213.129 55.475 212.109 56.9 209.859 56.9ZM225.69 53.3C222.045 53.3 219.6 51.44 219.6 48.575C219.6 45.695 222.045 43.835 225.69 43.835C229.32 43.835 231.765 45.695 231.765 48.575C231.765 51.44 229.32 53.3 225.69 53.3ZM221.58 48.575C221.58 50.48 223.245 51.725 225.69 51.725C228.12 51.725 229.785 50.48 229.785 48.575C229.785 46.655 228.12 45.41 225.69 45.41C223.245 45.41 221.58 46.655 221.58 48.575Z" fill="white"/>
<path d="M291.967 1187V1175.51H300.847C303.839 1175.51 304.783 1176.66 304.783 1178.33C304.783 1179.7 303.983 1180.57 302.799 1180.98C304.239 1181.35 305.439 1182.15 305.439 1183.83C305.439 1185.7 304.319 1187 301.503 1187H291.967ZM295.727 1184.28H300.303C300.991 1184.28 301.535 1184.23 301.535 1183.34C301.535 1182.44 300.959 1182.39 300.303 1182.39H295.727V1184.28ZM295.727 1180.1H299.663C300.447 1180.1 301.023 1180.04 301.023 1179.14C301.023 1178.28 300.479 1178.23 299.663 1178.23H295.727V1180.1ZM306.858 1187V1177.38H310.554V1187H306.858ZM306.858 1176.41V1174.2H310.554V1176.41H306.858ZM318.058 1187.32C315.29 1187.32 313.77 1186.26 313.77 1184.12V1180.09H311.866V1177.38H313.77V1175.62L317.45 1174.66V1177.38H321.354V1180.09H317.45V1182.78C317.45 1183.66 317.85 1184.28 318.922 1184.28C319.802 1184.28 320.25 1184.2 321.354 1183.96V1186.9C320.458 1187.13 319.306 1187.32 318.058 1187.32ZM330.18 1191.16C327.972 1191.16 325.86 1190.9 323.284 1190.36L323.844 1187.62C326.388 1188.1 327.876 1188.28 329.524 1188.28C332.212 1188.28 333.14 1187.69 333.14 1186.25V1185.14C332.212 1186.52 330.564 1187.32 328.484 1187.32C325.028 1187.32 322.788 1185.32 322.788 1182.2C322.788 1179.1 325.028 1177.06 328.484 1177.06C330.564 1177.06 332.212 1177.88 333.14 1179.26V1177.38H336.836V1186.06C336.836 1189.53 334.852 1191.16 330.18 1191.16ZM326.66 1182.2C326.66 1183.45 327.796 1184.25 329.748 1184.25C331.732 1184.25 332.98 1183.54 333.14 1182.44V1181.96C332.98 1180.86 331.732 1180.14 329.748 1180.14C327.796 1180.14 326.66 1180.95 326.66 1182.2ZM345.218 1187.32C340.93 1187.32 338.194 1185.32 338.21 1182.2C338.21 1179.05 340.946 1177.06 345.202 1177.06C349.682 1177.06 352.274 1179.1 352.274 1182.94H342.018C342.338 1184.18 343.554 1184.74 345.442 1184.74C346.962 1184.74 348.194 1184.31 348.578 1183.59H352.194C351.426 1186.07 349.33 1187.34 345.218 1187.32ZM342.098 1181.16H348.45C348.018 1180.07 346.946 1179.64 345.346 1179.64C343.602 1179.64 342.498 1180.1 342.098 1181.16ZM359.073 1187.32C356.305 1187.32 354.785 1186.26 354.785 1184.12V1180.09H352.881V1177.38H354.785V1175.62L358.465 1174.66V1177.38H362.369V1180.09H358.465V1182.78C358.465 1183.66 358.865 1184.28 359.937 1184.28C360.817 1184.28 361.265 1184.2 362.369 1183.96V1186.9C361.473 1187.13 360.321 1187.32 359.073 1187.32ZM325.466 1223.79C325.466 1220.17 330.146 1221.24 330.146 1219.05C330.146 1217.83 328.916 1217.49 327.251 1217.49C324.986 1217.49 323.696 1218.15 323.696 1220.13H321.761C321.821 1217.29 323.786 1216.09 327.251 1216.09C330.431 1216.09 332.216 1216.93 332.216 1218.84C332.216 1221.96 327.401 1220.77 327.401 1223.79H325.466ZM325.256 1227V1225.15H327.611V1227H325.256Z" fill="white"/>
<path d="M57.9648 1187.32C53.0848 1187.32 49.9168 1184.94 49.9168 1181.26C49.9168 1177.61 53.0848 1175.24 57.9648 1175.24C62.8768 1175.24 66.0288 1177.61 66.0288 1181.26C66.0288 1184.94 62.8768 1187.32 57.9648 1187.32ZM53.8368 1181.26C53.8368 1183 55.4528 1184.15 57.9648 1184.15C60.5088 1184.15 62.1248 1183 62.1248 1181.26C62.1248 1179.53 60.5088 1178.39 57.9648 1178.39C55.4368 1178.39 53.8368 1179.53 53.8368 1181.26ZM67.6237 1187V1175.51H71.3837V1180.07L76.5037 1175.51H82.0397L76.6317 1180.14L82.0397 1187H77.4637L73.9277 1182.44L71.3837 1184.6V1187H67.6237ZM83.5106 1187L89.2386 1181.26L83.5106 1175.51H88.5826L91.8146 1179.02L95.0306 1175.51H100.087L94.3746 1181.26L100.087 1187H95.0306L91.8146 1183.5L88.5826 1187H83.5106ZM17.2324 1227V1216.36H19.2424V1220.83H27.7624V1216.36H29.7724V1227H27.7624V1222.53H19.2424V1227H17.2324ZM37.9509 1227.3C34.3059 1227.3 31.8609 1225.44 31.8609 1222.57C31.8609 1219.69 34.3059 1217.83 37.9509 1217.83C41.5809 1217.83 44.0259 1219.69 44.0259 1222.57C44.0259 1225.44 41.5809 1227.3 37.9509 1227.3ZM33.8409 1222.57C33.8409 1224.48 35.5059 1225.72 37.9509 1225.72C40.3809 1225.72 42.0459 1224.48 42.0459 1222.57C42.0459 1220.65 40.3809 1219.41 37.9509 1219.41C35.5059 1219.41 33.8409 1220.65 33.8409 1222.57ZM45.9429 1227V1218.13H48.0429V1220.05C49.1829 1218.63 50.9379 1217.83 53.2179 1217.83C56.0679 1217.83 57.8079 1218.99 57.8079 1222.48V1227H55.7079V1223.19C55.7079 1220.58 54.6879 1219.59 52.2729 1219.59C49.7679 1219.59 48.0429 1220.95 48.0429 1223.26V1227H45.9429ZM66.1879 1230.9C64.2229 1230.9 62.7829 1230.75 60.2029 1230.38L60.4579 1228.88C63.0979 1229.22 64.1929 1229.33 65.8429 1229.33C69.0529 1229.33 69.9229 1228.38 69.9229 1226.53V1225.14C69.0079 1226.51 67.3129 1227.3 65.1829 1227.3C61.8829 1227.3 59.7529 1225.44 59.7529 1222.57C59.7529 1219.71 61.8829 1217.83 65.1829 1217.83C67.3129 1217.83 69.0079 1218.64 69.9229 1219.99V1218.13H71.8879V1226.43C71.8879 1229.25 70.5229 1230.9 66.1879 1230.9ZM61.9279 1222.57C61.9279 1224.37 63.4129 1225.54 65.8129 1225.54C68.2279 1225.54 69.7579 1224.51 69.9229 1222.87V1222.27C69.7579 1220.62 68.2279 1219.59 65.8129 1219.59C63.4129 1219.59 61.9279 1220.76 61.9279 1222.57ZM80.1767 1227V1216.36H82.1867V1222.11L89.5367 1216.36H92.5367L87.0017 1220.73L92.5367 1227H90.0617L85.5167 1221.9L82.1867 1224.52V1227H80.1767ZM98.8298 1227.3C95.1848 1227.3 92.7398 1225.44 92.7398 1222.57C92.7398 1219.69 95.1848 1217.83 98.8298 1217.83C102.46 1217.83 104.905 1219.69 104.905 1222.57C104.905 1225.44 102.46 1227.3 98.8298 1227.3ZM94.7198 1222.57C94.7198 1224.48 96.3848 1225.72 98.8298 1225.72C101.26 1225.72 102.925 1224.48 102.925 1222.57C102.925 1220.65 101.26 1219.41 98.8298 1219.41C96.3848 1219.41 94.7198 1220.65 94.7198 1222.57ZM106.822 1227V1218.13H108.922V1220.05C110.062 1218.63 111.817 1217.83 114.097 1217.83C116.947 1217.83 118.687 1218.99 118.687 1222.48V1227H116.587V1223.19C116.587 1220.58 115.567 1219.59 113.152 1219.59C110.647 1219.59 108.922 1220.95 108.922 1223.26V1227H106.822ZM127.067 1230.9C125.102 1230.9 123.662 1230.75 121.082 1230.38L121.337 1228.88C123.977 1229.22 125.072 1229.33 126.722 1229.33C129.932 1229.33 130.802 1228.38 130.802 1226.53V1225.14C129.887 1226.51 128.192 1227.3 126.062 1227.3C122.762 1227.3 120.632 1225.44 120.632 1222.57C120.632 1219.71 122.762 1217.83 126.062 1217.83C128.192 1217.83 129.887 1218.64 130.802 1219.99V1218.13H132.767V1226.43C132.767 1229.25 131.402 1230.9 127.067 1230.9ZM122.807 1222.57C122.807 1224.37 124.292 1225.54 126.692 1225.54C129.107 1225.54 130.637 1224.51 130.802 1222.87V1222.27C130.637 1220.62 129.107 1219.59 126.692 1219.59C124.292 1219.59 122.807 1220.76 122.807 1222.57Z" fill="white"/>
<path d="M245 688.754C358.5 688.754 327 849.5 327 1149" stroke="url(#paint2_linear_0_1)" stroke-width="2"/>
<path d="M150.185 688.754C36.6846 688.754 68.1845 849.5 68.1845 1149" stroke="url(#paint3_linear_0_1)" stroke-width="2"/>
<g opacity="0.977">
<path d="M2.66739 1330.15L72.6262 1289.95C73.3728 1289.51 74.2224 1289.28 75.0875 1289.28C75.9527 1289.28 76.8022 1289.51 77.5489 1289.95L147.512 1330.15C148.26 1330.57 148.881 1331.18 149.313 1331.93C149.746 1332.67 149.974 1333.51 149.974 1334.37C149.974 1335.23 149.746 1336.08 149.313 1336.82C148.881 1337.56 148.26 1338.18 147.512 1338.6L77.5489 1378.8C76.8022 1379.23 75.9527 1379.46 75.0875 1379.46C74.2224 1379.46 73.3728 1379.23 72.6262 1378.8L2.66739 1338.6C1.89178 1338.2 1.24135 1337.59 0.787306 1336.85C0.333257 1336.1 0.0930892 1335.25 0.0930892 1334.37C0.0930892 1333.5 0.333257 1332.64 0.787306 1331.9C1.24135 1331.15 1.89178 1330.55 2.66739 1330.15Z" fill="url(#paint4_linear_0_1)"/>
<path d="M2.66739 1284.41L72.6262 1244.22C73.3728 1243.78 74.2224 1243.55 75.0875 1243.55C75.9527 1243.55 76.8022 1243.78 77.5489 1244.22L147.512 1284.41C148.26 1284.84 148.881 1285.45 149.313 1286.19C149.746 1286.94 149.974 1287.78 149.974 1288.64C149.974 1289.5 149.746 1290.34 149.313 1291.09C148.881 1291.83 148.26 1292.44 147.512 1292.87L77.5489 1333.06C76.8022 1333.5 75.9527 1333.73 75.0875 1333.73C74.2224 1333.73 73.3728 1333.5 72.6262 1333.06L2.66739 1292.87C1.89178 1292.47 1.24135 1291.86 0.787306 1291.11C0.333257 1290.37 0.0930892 1289.51 0.0930892 1288.64C0.0930892 1287.77 0.333257 1286.91 0.787306 1286.17C1.24135 1285.42 1.89178 1284.81 2.66739 1284.41Z" fill="url(#paint5_linear_0_1)"/>
<path d="M0.107832 1289.14C-0.124664 1286.76 0.0911821 1334.86 0.0911821 1334.86C0.170306 1335.59 0.429433 1336.29 0.84422 1336.9C1.25901 1337.5 1.81682 1337.99 2.46836 1338.33C4.84214 1339.76 71.7812 1378.42 71.7812 1378.42C71.7812 1378.42 74.2857 1380.65 78.3799 1378.42C82.4742 1376.2 147.753 1338.33 147.753 1338.33C147.753 1338.33 149.825 1338.09 149.864 1334.16C149.903 1330.22 149.977 1288.72 149.977 1288.72C149.966 1289.49 149.755 1290.24 149.365 1290.91C148.976 1291.57 148.42 1292.12 147.753 1292.5C145.421 1293.88 81.7873 1330.68 78.4541 1332.48C75.1209 1334.28 72.4327 1332.77 71.0796 1332.07C69.7265 1331.36 2.2678 1292.62 2.2678 1292.62C1.67033 1292.24 1.16581 1291.73 0.792 1291.13C0.418194 1290.52 0.184547 1289.84 0.107832 1289.14Z" fill="url(#paint6_linear_0_1)"/>
<path d="M2.66739 1330.15L72.6262 1289.95C73.3728 1289.51 74.2224 1289.28 75.0875 1289.28C75.9527 1289.28 76.8022 1289.51 77.5489 1289.95L147.512 1330.15C148.26 1330.57 148.881 1331.18 149.313 1331.93C149.746 1332.67 149.974 1333.51 149.974 1334.37C149.974 1335.23 149.746 1336.08 149.313 1336.82C148.881 1337.56 148.26 1338.18 147.512 1338.6L77.5489 1378.8C76.8022 1379.23 75.9527 1379.46 75.0875 1379.46C74.2224 1379.46 73.3728 1379.23 72.6262 1378.8L2.66739 1338.6C1.89178 1338.2 1.24135 1337.59 0.787306 1336.85C0.333257 1336.1 0.0930892 1335.25 0.0930892 1334.37C0.0930892 1333.5 0.333257 1332.64 0.787306 1331.9C1.24135 1331.15 1.89178 1330.55 2.66739 1330.15Z" fill="url(#paint7_linear_0_1)"/>
<path d="M2.66739 1284.41L72.6262 1244.22C73.3728 1243.78 74.2224 1243.55 75.0875 1243.55C75.9527 1243.55 76.8022 1243.78 77.5489 1244.22L147.512 1284.41C148.26 1284.84 148.881 1285.45 149.313 1286.19C149.746 1286.94 149.974 1287.78 149.974 1288.64C149.974 1289.5 149.746 1290.34 149.313 1291.09C148.881 1291.83 148.26 1292.44 147.512 1292.87L77.5489 1333.06C76.8022 1333.5 75.9527 1333.73 75.0875 1333.73C74.2224 1333.73 73.3728 1333.5 72.6262 1333.06L2.66739 1292.87C1.89178 1292.47 1.24135 1291.86 0.787306 1291.11C0.333257 1290.37 0.0930892 1289.51 0.0930892 1288.64C0.0930892 1287.77 0.333257 1286.91 0.787306 1286.17C1.24135 1285.42 1.89178 1284.81 2.66739 1284.41Z" fill="url(#paint8_linear_0_1)"/>
<path d="M0.107832 1289.14C-0.124664 1286.76 0.0911821 1334.86 0.0911821 1334.86C0.0919816 1335.6 0.296182 1336.32 0.67999 1336.95C1.0638 1337.57 1.61282 1338.08 2.26705 1338.42C4.63773 1339.85 71.7835 1378.42 71.7835 1378.42C71.7835 1378.42 74.2879 1380.65 78.3822 1378.42C82.4764 1376.2 146.813 1339.02 147.851 1338.42C148.548 1337.97 149.115 1337.35 149.491 1336.62C149.867 1335.88 150.041 1335.06 149.992 1334.24C150.014 1331.96 149.978 1288.72 149.978 1288.72C149.967 1289.49 149.757 1290.24 149.367 1290.91C148.977 1291.57 148.421 1292.12 147.755 1292.5C145.423 1293.88 81.7888 1330.68 78.4556 1332.48C75.1224 1334.28 72.4343 1332.77 71.0811 1332.07C69.728 1331.36 2.26932 1292.62 2.26932 1292.62C1.67156 1292.24 1.16684 1291.73 0.792756 1291.13C0.418677 1290.52 0.184723 1289.84 0.107832 1289.14Z" fill="url(#paint9_linear_0_1)"/>
<path d="M21.3724 1285.61L73.1493 1256.75C73.7017 1256.43 74.3303 1256.26 74.9705 1256.26C75.6106 1256.26 76.2392 1256.43 76.7917 1256.75L128.569 1285.61C129.122 1285.92 129.582 1286.37 129.902 1286.92C130.222 1287.47 130.39 1288.1 130.39 1288.73C130.39 1289.37 130.222 1289.99 129.902 1290.54C129.582 1291.09 129.122 1291.55 128.569 1291.86L76.7925 1321.61C76.24 1321.93 75.6114 1322.1 74.9713 1322.1C74.3311 1322.1 73.7025 1321.93 73.15 1321.61L21.3724 1291.86C20.7985 1291.57 20.3171 1291.12 19.9811 1290.57C19.6451 1290.01 19.4674 1289.38 19.4674 1288.73C19.4674 1288.09 19.6451 1287.45 19.9811 1286.9C20.3171 1286.35 20.7985 1285.9 21.3724 1285.61Z" fill="url(#paint10_linear_0_1)"/>
<path d="M25.778 1292.39V1239L75.4324 1279.22L124.695 1243.41V1292.39L74.4667 1321.04L25.778 1292.39Z" fill="url(#paint11_linear_0_1)"/>
</g>
<g opacity="0.977">
<path d="M254.667 1330.15L324.626 1289.95C325.373 1289.51 326.222 1289.28 327.088 1289.28C327.953 1289.28 328.802 1289.51 329.549 1289.95L399.512 1330.15C400.26 1330.57 400.881 1331.18 401.313 1331.93C401.746 1332.67 401.974 1333.51 401.974 1334.37C401.974 1335.23 401.746 1336.08 401.313 1336.82C400.881 1337.56 400.26 1338.18 399.512 1338.6L329.549 1378.8C328.802 1379.23 327.953 1379.46 327.088 1379.46C326.222 1379.46 325.373 1379.23 324.626 1378.8L254.667 1338.6C253.892 1338.2 253.241 1337.59 252.787 1336.85C252.333 1336.1 252.093 1335.25 252.093 1334.37C252.093 1333.5 252.333 1332.64 252.787 1331.9C253.241 1331.15 253.892 1330.55 254.667 1330.15Z" fill="url(#paint12_linear_0_1)"/>
<path d="M254.667 1284.41L324.626 1244.22C325.373 1243.78 326.222 1243.55 327.088 1243.55C327.953 1243.55 328.802 1243.78 329.549 1244.22L399.512 1284.41C400.26 1284.84 400.881 1285.45 401.313 1286.19C401.746 1286.94 401.974 1287.78 401.974 1288.64C401.974 1289.5 401.746 1290.34 401.313 1291.09C400.881 1291.83 400.26 1292.44 399.512 1292.87L329.549 1333.06C328.802 1333.5 327.953 1333.73 327.088 1333.73C326.222 1333.73 325.373 1333.5 324.626 1333.06L254.667 1292.87C253.892 1292.47 253.241 1291.86 252.787 1291.11C252.333 1290.37 252.093 1289.51 252.093 1288.64C252.093 1287.77 252.333 1286.91 252.787 1286.17C253.241 1285.42 253.892 1284.81 254.667 1284.41Z" fill="url(#paint13_linear_0_1)"/>
<path d="M252.108 1289.14C251.875 1286.76 252.091 1334.86 252.091 1334.86C252.17 1335.59 252.429 1336.29 252.844 1336.9C253.259 1337.5 253.817 1337.99 254.468 1338.33C256.842 1339.76 323.781 1378.42 323.781 1378.42C323.781 1378.42 326.286 1380.65 330.38 1378.42C334.474 1376.2 399.753 1338.33 399.753 1338.33C399.753 1338.33 401.825 1338.09 401.864 1334.16C401.903 1330.22 401.977 1288.72 401.977 1288.72C401.966 1289.49 401.755 1290.24 401.365 1290.91C400.976 1291.57 400.42 1292.12 399.753 1292.5C397.421 1293.88 333.787 1330.68 330.454 1332.48C327.121 1334.28 324.433 1332.77 323.08 1332.07C321.726 1331.36 254.268 1292.62 254.268 1292.62C253.67 1292.24 253.166 1291.73 252.792 1291.13C252.418 1290.52 252.185 1289.84 252.108 1289.14Z" fill="url(#paint14_linear_0_1)"/>
<path d="M254.667 1330.15L324.626 1289.95C325.373 1289.51 326.222 1289.28 327.088 1289.28C327.953 1289.28 328.802 1289.51 329.549 1289.95L399.512 1330.15C400.26 1330.57 400.881 1331.18 401.313 1331.93C401.746 1332.67 401.974 1333.51 401.974 1334.37C401.974 1335.23 401.746 1336.08 401.313 1336.82C400.881 1337.56 400.26 1338.18 399.512 1338.6L329.549 1378.8C328.802 1379.23 327.953 1379.46 327.088 1379.46C326.222 1379.46 325.373 1379.23 324.626 1378.8L254.667 1338.6C253.892 1338.2 253.241 1337.59 252.787 1336.85C252.333 1336.1 252.093 1335.25 252.093 1334.37C252.093 1333.5 252.333 1332.64 252.787 1331.9C253.241 1331.15 253.892 1330.55 254.667 1330.15Z" fill="url(#paint15_linear_0_1)"/>
<path d="M254.667 1284.41L324.626 1244.22C325.373 1243.78 326.222 1243.55 327.088 1243.55C327.953 1243.55 328.802 1243.78 329.549 1244.22L399.512 1284.41C400.26 1284.84 400.881 1285.45 401.313 1286.19C401.746 1286.94 401.974 1287.78 401.974 1288.64C401.974 1289.5 401.746 1290.34 401.313 1291.09C400.881 1291.83 400.26 1292.44 399.512 1292.87L329.549 1333.06C328.802 1333.5 327.953 1333.73 327.088 1333.73C326.222 1333.73 325.373 1333.5 324.626 1333.06L254.667 1292.87C253.892 1292.47 253.241 1291.86 252.787 1291.11C252.333 1290.37 252.093 1289.51 252.093 1288.64C252.093 1287.77 252.333 1286.91 252.787 1286.17C253.241 1285.42 253.892 1284.81 254.667 1284.41Z" fill="url(#paint16_linear_0_1)"/>
<path d="M252.108 1289.14C251.875 1286.76 252.091 1334.86 252.091 1334.86C252.092 1335.6 252.296 1336.32 252.68 1336.95C253.064 1337.57 253.613 1338.08 254.267 1338.42C256.638 1339.85 323.783 1378.42 323.783 1378.42C323.783 1378.42 326.288 1380.65 330.382 1378.42C334.476 1376.2 398.813 1339.02 399.851 1338.42C400.548 1337.97 401.115 1337.35 401.491 1336.62C401.867 1335.88 402.041 1335.06 401.992 1334.24C402.014 1331.96 401.978 1288.72 401.978 1288.72C401.967 1289.49 401.757 1290.24 401.367 1290.91C400.977 1291.57 400.421 1292.12 399.755 1292.5C397.423 1293.88 333.789 1330.68 330.456 1332.48C327.122 1334.28 324.434 1332.77 323.081 1332.07C321.728 1331.36 254.269 1292.62 254.269 1292.62C253.672 1292.24 253.167 1291.73 252.793 1291.13C252.419 1290.52 252.185 1289.84 252.108 1289.14Z" fill="url(#paint17_linear_0_1)"/>
<path d="M273.372 1285.61L325.149 1256.75C325.702 1256.43 326.33 1256.26 326.97 1256.26C327.611 1256.26 328.239 1256.43 328.792 1256.75L380.569 1285.61C381.122 1285.92 381.582 1286.37 381.902 1286.92C382.222 1287.47 382.39 1288.1 382.39 1288.73C382.39 1289.37 382.222 1289.99 381.902 1290.54C381.582 1291.09 381.122 1291.55 380.569 1291.86L328.792 1321.61C328.24 1321.93 327.611 1322.1 326.971 1322.1C326.331 1322.1 325.703 1321.93 325.15 1321.61L273.372 1291.86C272.798 1291.57 272.317 1291.12 271.981 1290.57C271.645 1290.01 271.467 1289.38 271.467 1288.73C271.467 1288.09 271.645 1287.45 271.981 1286.9C272.317 1286.35 272.798 1285.9 273.372 1285.61Z" fill="url(#paint18_linear_0_1)"/>
<path d="M277.778 1292.39V1239L327.432 1279.22L376.695 1243.41V1292.39L326.467 1321.04L277.778 1292.39Z" fill="url(#paint19_linear_0_1)"/>
</g>
<g opacity="0.977">
<path d="M127.667 156.146L197.626 115.95C198.373 115.513 199.222 115.282 200.088 115.282C200.953 115.282 201.802 115.513 202.549 115.95L272.512 156.146C273.26 156.57 273.881 157.185 274.313 157.927C274.746 158.67 274.974 159.514 274.974 160.373C274.974 161.232 274.746 162.076 274.313 162.819C273.881 163.561 273.26 164.176 272.512 164.6L202.549 204.797C201.802 205.234 200.953 205.465 200.088 205.465C199.222 205.465 198.373 205.234 197.626 204.797L127.667 164.601C126.892 164.2 126.241 163.594 125.787 162.848C125.333 162.103 125.093 161.247 125.093 160.374C125.093 159.501 125.333 158.644 125.787 157.899C126.241 157.153 126.892 156.547 127.667 156.146Z" fill="url(#paint20_linear_0_1)"/>
<path d="M127.667 110.413L197.626 70.2163C198.373 69.7793 199.222 69.5489 200.088 69.5489C200.953 69.5489 201.802 69.7793 202.549 70.2163L272.512 110.413C273.26 110.837 273.881 111.451 274.313 112.194C274.746 112.937 274.974 113.78 274.974 114.64C274.974 115.499 274.746 116.343 274.313 117.085C273.881 117.828 273.26 118.443 272.512 118.867L202.549 159.064C201.802 159.501 200.953 159.731 200.088 159.731C199.222 159.731 198.373 159.501 197.626 159.064L127.667 118.868C126.892 118.467 126.241 117.861 125.787 117.115C125.333 116.369 125.093 115.513 125.093 114.64C125.093 113.767 125.333 112.911 125.787 112.165C126.241 111.42 126.892 110.813 127.667 110.413Z" fill="url(#paint21_linear_0_1)"/>
<path d="M125.108 115.14C124.875 112.764 125.091 160.864 125.091 160.864C125.17 161.593 125.429 162.291 125.844 162.895C126.259 163.499 126.817 163.992 127.468 164.328C129.842 165.755 196.781 204.422 196.781 204.422C196.781 204.422 199.286 206.648 203.38 204.422C207.474 202.197 272.753 164.328 272.753 164.328C272.753 164.328 274.825 164.086 274.864 160.155C274.903 156.224 274.977 114.723 274.977 114.723C274.966 115.491 274.755 116.243 274.365 116.905C273.976 117.567 273.42 118.116 272.753 118.499C270.421 119.881 206.787 156.679 203.454 158.477C200.121 160.276 197.433 158.773 196.08 158.068C194.726 157.363 127.268 118.621 127.268 118.621C126.67 118.24 126.166 117.729 125.792 117.126C125.418 116.524 125.185 115.845 125.108 115.14Z" fill="url(#paint22_linear_0_1)"/>
<path d="M127.667 156.146L197.626 115.95C198.373 115.513 199.222 115.282 200.088 115.282C200.953 115.282 201.802 115.513 202.549 115.95L272.512 156.146C273.26 156.57 273.881 157.185 274.313 157.927C274.746 158.67 274.974 159.514 274.974 160.373C274.974 161.232 274.746 162.076 274.313 162.819C273.881 163.561 273.26 164.176 272.512 164.6L202.549 204.797C201.802 205.234 200.953 205.465 200.088 205.465C199.222 205.465 198.373 205.234 197.626 204.797L127.667 164.601C126.892 164.2 126.241 163.594 125.787 162.848C125.333 162.103 125.093 161.247 125.093 160.374C125.093 159.501 125.333 158.644 125.787 157.899C126.241 157.153 126.892 156.547 127.667 156.146Z" fill="url(#paint23_linear_0_1)"/>
<path d="M127.667 110.413L197.626 70.2163C198.373 69.7793 199.222 69.5489 200.088 69.5489C200.953 69.5489 201.802 69.7793 202.549 70.2163L272.512 110.413C273.26 110.837 273.881 111.451 274.313 112.194C274.746 112.937 274.974 113.78 274.974 114.64C274.974 115.499 274.746 116.343 274.313 117.085C273.881 117.828 273.26 118.443 272.512 118.867L202.549 159.064C201.802 159.501 200.953 159.731 200.088 159.731C199.222 159.731 198.373 159.501 197.626 159.064L127.667 118.868C126.892 118.467 126.241 117.861 125.787 117.115C125.333 116.369 125.093 115.513 125.093 114.64C125.093 113.767 125.333 112.911 125.787 112.165C126.241 111.42 126.892 110.813 127.667 110.413Z" fill="url(#paint24_linear_0_1)"/>
<path d="M125.108 115.14C124.875 112.764 125.091 160.864 125.091 160.864C125.092 161.599 125.296 162.319 125.68 162.946C126.064 163.573 126.613 164.081 127.267 164.416C129.638 165.846 196.783 204.423 196.783 204.423C196.783 204.423 199.288 206.649 203.382 204.423C207.476 202.197 271.813 165.016 272.851 164.416C273.548 163.973 274.115 163.353 274.491 162.617C274.867 161.882 275.041 161.06 274.992 160.236C275.014 157.96 274.978 114.723 274.978 114.723C274.967 115.491 274.757 116.243 274.367 116.905C273.977 117.567 273.421 118.116 272.755 118.499C270.423 119.881 206.789 156.679 203.456 158.477C200.122 160.276 197.434 158.773 196.081 158.068C194.728 157.363 127.269 118.621 127.269 118.621C126.672 118.24 126.167 117.729 125.793 117.126C125.419 116.524 125.185 115.845 125.108 115.14Z" fill="url(#paint25_linear_0_1)"/>
<path d="M146.372 111.605L198.149 82.7532C198.702 82.4298 199.33 82.2594 199.97 82.2594C200.611 82.2594 201.239 82.4298 201.792 82.7532L253.569 111.605C254.122 111.919 254.582 112.374 254.902 112.924C255.222 113.473 255.39 114.098 255.39 114.734C255.39 115.37 255.222 115.994 254.902 116.544C254.582 117.094 254.122 117.548 253.569 117.862L201.792 147.61C201.24 147.934 200.611 148.104 199.971 148.104C199.331 148.104 198.703 147.934 198.15 147.61L146.372 117.862C145.798 117.566 145.317 117.117 144.981 116.565C144.645 116.013 144.467 115.38 144.467 114.734C144.467 114.088 144.645 113.454 144.981 112.902C145.317 112.35 145.798 111.902 146.372 111.605Z" fill="url(#paint26_linear_0_1)"/>
<path d="M150.778 118.391V65L200.432 105.217L249.695 69.4066V118.39L199.467 147.038L150.778 118.391Z" fill="url(#paint27_linear_0_1)"/>
</g>
<path d="M235.221 617.152L197.222 632.688L235.25 648.21L273.152 632.706" fill="url(#paint28_linear_0_1)"/>
<path d="M235.222 601.687L197.223 617.223L235.251 632.744L273.153 617.241" fill="url(#paint29_linear_0_1)"/>
<path d="M235.221 586.914L197.222 602.451L235.25 617.972L273.152 602.469" fill="url(#paint30_linear_0_1)"/>
<path d="M235.222 571.448L197.223 586.985L235.251 602.506L273.153 587.003" fill="url(#paint31_linear_0_1)"/>
<path d="M235.221 556.164L197.222 571.7L235.25 587.222L273.152 571.718" fill="url(#paint32_linear_0_1)"/>
<path d="M235.222 540.698L197.223 556.235L235.251 571.756L273.153 556.253" fill="url(#paint33_linear_0_1)"/>
<path d="M235.221 525.926L197.222 541.462L235.25 556.983L273.152 541.48" fill="url(#paint34_linear_0_1)"/>
<path d="M235.222 510.46L197.223 525.997L235.251 541.518L273.153 526.015" fill="url(#paint35_linear_0_1)"/>
<path d="M235.221 496.201L197.222 511.737L235.25 527.259L273.152 511.755" fill="url(#paint36_linear_0_1)"/>
<path d="M235.222 480.735L197.223 496.272L235.251 511.793L273.153 496.29" fill="url(#paint37_linear_0_1)"/>
<path d="M235.252 466L197.223 480.987L235.252 496.508L273.153 481.005" fill="url(#paint38_linear_0_1)"/>
<path d="M162.723 617.152L124.724 632.688L162.752 648.21L200.654 632.706" fill="url(#paint39_linear_0_1)"/>
<path d="M162.723 601.687L124.724 617.223L162.752 632.744L200.654 617.241" fill="url(#paint40_linear_0_1)"/>
<path d="M162.723 586.914L124.724 602.451L162.752 617.972L200.654 602.469" fill="url(#paint41_linear_0_1)"/>
<path d="M162.723 571.449L124.724 586.985L162.752 602.507L200.654 587.003" fill="url(#paint42_linear_0_1)"/>
<path d="M162.723 556.164L124.724 571.7L162.752 587.222L200.654 571.718" fill="url(#paint43_linear_0_1)"/>
<path d="M162.723 540.698L124.724 556.235L162.752 571.756L200.654 556.253" fill="url(#paint44_linear_0_1)"/>
<path d="M162.723 525.926L124.724 541.462L162.752 556.984L200.654 541.48" fill="url(#paint45_linear_0_1)"/>
<path d="M162.723 510.46L124.724 525.997L162.752 541.518L200.654 526.015" fill="url(#paint46_linear_0_1)"/>
<path d="M162.723 496.201L124.724 511.737L162.752 527.259L200.654 511.755" fill="url(#paint47_linear_0_1)"/>
<path d="M162.723 480.735L124.724 496.272L162.752 511.793L200.654 496.29" fill="url(#paint48_linear_0_1)"/>
<path d="M162.754 466L124.726 480.987L162.754 496.508L200.656 481.005" fill="url(#paint49_linear_0_1)"/>
<path d="M160.534 495.327V647.198L198.043 662.134L235.386 647.198L235.952 495.327L198.043 479.894L160.534 495.327Z" fill="url(#paint50_linear_0_1)"/>
<path d="M235.383 495.188L197.568 510.191V662.149L235.383 646.924V495.188Z" fill="url(#paint51_linear_0_1)"/>
<path opacity="0.589" d="M197.568 510.144L160.311 495.292L198.22 479.842L235.846 495.292L197.568 510.144Z" fill="url(#paint52_linear_0_1)"/>
<path d="M235.948 646.365L197.948 661.901L235.977 677.423L273.879 661.919" fill="url(#paint53_linear_0_1)"/>
<path d="M235.948 630.899L197.948 646.436L235.977 661.957L273.879 646.454" fill="url(#paint54_linear_0_1)"/>
<path d="M235.948 616.127L197.948 631.663L235.977 647.185L273.879 631.681" fill="url(#paint55_linear_0_1)"/>
<path d="M235.948 600.661L197.948 616.198L235.977 631.719L273.879 616.216" fill="url(#paint56_linear_0_1)"/>
<path d="M235.948 585.376L197.948 600.913L235.977 616.434L273.879 600.931" fill="url(#paint57_linear_0_1)"/>
<path d="M235.948 569.911L197.948 585.448L235.977 600.969L273.879 585.466" fill="url(#paint58_linear_0_1)"/>
<path d="M235.948 555.139L197.948 570.675L235.977 586.197L273.879 570.693" fill="url(#paint59_linear_0_1)"/>
<path d="M235.948 539.673L197.948 555.21L235.977 570.731L273.879 555.228" fill="url(#paint60_linear_0_1)"/>
<path d="M235.948 525.413L197.948 540.95L235.977 556.471L273.879 540.968" fill="url(#paint61_linear_0_1)"/>
<path d="M235.948 509.948L197.948 525.485L235.977 541.006L273.879 525.503" fill="url(#paint62_linear_0_1)"/>
<path d="M235.978 495.213L197.949 510.2L235.978 525.721L273.879 510.218" fill="url(#paint63_linear_0_1)"/>
<path d="M161.999 646.365L124 661.901L162.028 677.423L199.93 661.919" fill="url(#paint64_linear_0_1)"/>
<path d="M161.999 630.899L124 646.436L162.028 661.957L199.93 646.454" fill="url(#paint65_linear_0_1)"/>
<path d="M161.999 616.127L124 631.664L162.028 647.185L199.93 631.682" fill="url(#paint66_linear_0_1)"/>
<path d="M161.999 600.662L124 616.198L162.028 631.72L199.93 616.216" fill="url(#paint67_linear_0_1)"/>
<path d="M161.999 585.376L124 600.913L162.028 616.434L199.93 600.931" fill="url(#paint68_linear_0_1)"/>
<path d="M161.999 569.911L124 585.448L162.028 600.969L199.93 585.466" fill="url(#paint69_linear_0_1)"/>
<path d="M161.999 555.138L124 570.675L162.028 586.196L199.93 570.693" fill="url(#paint70_linear_0_1)"/>
<path d="M161.999 539.673L124 555.21L162.028 570.731L199.93 555.228" fill="url(#paint71_linear_0_1)"/>
<path d="M161.999 525.413L124 540.95L162.028 556.471L199.93 540.968" fill="url(#paint72_linear_0_1)"/>
<path d="M161.999 509.948L124 525.485L162.028 541.006L199.93 525.503" fill="url(#paint73_linear_0_1)"/>
<path d="M162.029 495.213L124.001 510.2L162.029 525.721L199.931 510.218" fill="url(#paint74_linear_0_1)"/>
<path opacity="0.541" d="M162.085 525.817C161.968 563.775 161.904 677.455 161.904 677.455L198.603 662.505L198.358 510.563L162.085 525.817Z" fill="url(#paint75_linear_0_1)"/>
<path opacity="0.844" d="M235.706 525.851L236.199 677.687L198.482 662.298L198.358 510.563L235.706 525.851Z" fill="url(#paint76_linear_0_1)"/>
<path opacity="0.541" d="M235.773 525.835C235.656 563.793 236.123 677.733 236.123 677.733L274 662.505L273.756 510.563L235.773 525.835Z" fill="url(#paint77_linear_0_1)"/>
<path opacity="0.784" d="M162.158 525.895C162.281 563.853 162.251 677.687 162.251 677.687L124.534 662.298L124.219 510.285L162.158 525.895Z" fill="url(#paint78_linear_0_1)"/>
<path opacity="0.46" d="M124.23 481V510.179L161.907 495.207L124.23 481Z" fill="#E10531"/>
<path opacity="0.46" d="M273.878 480.864V510.313L235.853 495.203L273.878 480.864Z" fill="#E10531"/>
<g opacity="0.977">
<path d="M127.667 1090.15L197.626 1049.95C198.373 1049.51 199.222 1049.28 200.088 1049.28C200.953 1049.28 201.802 1049.51 202.549 1049.95L272.512 1090.15C273.26 1090.57 273.881 1091.18 274.313 1091.93C274.746 1092.67 274.974 1093.51 274.974 1094.37C274.974 1095.23 274.746 1096.08 274.313 1096.82C273.881 1097.56 273.26 1098.18 272.512 1098.6L202.549 1138.8C201.802 1139.23 200.953 1139.46 200.088 1139.46C199.222 1139.46 198.373 1139.23 197.626 1138.8L127.667 1098.6C126.892 1098.2 126.241 1097.59 125.787 1096.85C125.333 1096.1 125.093 1095.25 125.093 1094.37C125.093 1093.5 125.333 1092.64 125.787 1091.9C126.241 1091.15 126.892 1090.55 127.667 1090.15Z" fill="url(#paint79_linear_0_1)"/>
<path d="M127.667 1044.41L197.626 1004.22C198.373 1003.78 199.222 1003.55 200.088 1003.55C200.953 1003.55 201.802 1003.78 202.549 1004.22L272.512 1044.41C273.26 1044.84 273.881 1045.45 274.313 1046.19C274.746 1046.94 274.974 1047.78 274.974 1048.64C274.974 1049.5 274.746 1050.34 274.313 1051.09C273.881 1051.83 273.26 1052.44 272.512 1052.87L202.549 1093.06C201.802 1093.5 200.953 1093.73 200.088 1093.73C199.222 1093.73 198.373 1093.5 197.626 1093.06L127.667 1052.87C126.892 1052.47 126.241 1051.86 125.787 1051.11C125.333 1050.37 125.093 1049.51 125.093 1048.64C125.093 1047.77 125.333 1046.91 125.787 1046.17C126.241 1045.42 126.892 1044.81 127.667 1044.41Z" fill="url(#paint80_linear_0_1)"/>
<path d="M125.108 1049.14C124.875 1046.76 125.091 1094.86 125.091 1094.86C125.17 1095.59 125.429 1096.29 125.844 1096.9C126.259 1097.5 126.817 1097.99 127.468 1098.33C129.842 1099.76 196.781 1138.42 196.781 1138.42C196.781 1138.42 199.286 1140.65 203.38 1138.42C207.474 1136.2 272.753 1098.33 272.753 1098.33C272.753 1098.33 274.825 1098.09 274.864 1094.16C274.903 1090.22 274.977 1048.72 274.977 1048.72C274.966 1049.49 274.755 1050.24 274.365 1050.91C273.976 1051.57 273.42 1052.12 272.753 1052.5C270.421 1053.88 206.787 1090.68 203.454 1092.48C200.121 1094.28 197.433 1092.77 196.08 1092.07C194.726 1091.36 127.268 1052.62 127.268 1052.62C126.67 1052.24 126.166 1051.73 125.792 1051.13C125.418 1050.52 125.185 1049.84 125.108 1049.14Z" fill="url(#paint81_linear_0_1)"/>
<path d="M127.667 1090.15L197.626 1049.95C198.373 1049.51 199.222 1049.28 200.088 1049.28C200.953 1049.28 201.802 1049.51 202.549 1049.95L272.512 1090.15C273.26 1090.57 273.881 1091.18 274.313 1091.93C274.746 1092.67 274.974 1093.51 274.974 1094.37C274.974 1095.23 274.746 1096.08 274.313 1096.82C273.881 1097.56 273.26 1098.18 272.512 1098.6L202.549 1138.8C201.802 1139.23 200.953 1139.46 200.088 1139.46C199.222 1139.46 198.373 1139.23 197.626 1138.8L127.667 1098.6C126.892 1098.2 126.241 1097.59 125.787 1096.85C125.333 1096.1 125.093 1095.25 125.093 1094.37C125.093 1093.5 125.333 1092.64 125.787 1091.9C126.241 1091.15 126.892 1090.55 127.667 1090.15Z" fill="url(#paint82_linear_0_1)"/>
<path d="M127.667 1044.41L197.626 1004.22C198.373 1003.78 199.222 1003.55 200.088 1003.55C200.953 1003.55 201.802 1003.78 202.549 1004.22L272.512 1044.41C273.26 1044.84 273.881 1045.45 274.313 1046.19C274.746 1046.94 274.974 1047.78 274.974 1048.64C274.974 1049.5 274.746 1050.34 274.313 1051.09C273.881 1051.83 273.26 1052.44 272.512 1052.87L202.549 1093.06C201.802 1093.5 200.953 1093.73 200.088 1093.73C199.222 1093.73 198.373 1093.5 197.626 1093.06L127.667 1052.87C126.892 1052.47 126.241 1051.86 125.787 1051.11C125.333 1050.37 125.093 1049.51 125.093 1048.64C125.093 1047.77 125.333 1046.91 125.787 1046.17C126.241 1045.42 126.892 1044.81 127.667 1044.41Z" fill="url(#paint83_linear_0_1)"/>
<path d="M125.108 1049.14C124.875 1046.76 125.091 1094.86 125.091 1094.86C125.092 1095.6 125.296 1096.32 125.68 1096.95C126.064 1097.57 126.613 1098.08 127.267 1098.42C129.638 1099.85 196.783 1138.42 196.783 1138.42C196.783 1138.42 199.288 1140.65 203.382 1138.42C207.476 1136.2 271.813 1099.02 272.851 1098.42C273.548 1097.97 274.115 1097.35 274.491 1096.62C274.867 1095.88 275.041 1095.06 274.992 1094.24C275.014 1091.96 274.978 1048.72 274.978 1048.72C274.967 1049.49 274.757 1050.24 274.367 1050.91C273.977 1051.57 273.421 1052.12 272.755 1052.5C270.423 1053.88 206.789 1090.68 203.456 1092.48C200.122 1094.28 197.434 1092.77 196.081 1092.07C194.728 1091.36 127.269 1052.62 127.269 1052.62C126.672 1052.24 126.167 1051.73 125.793 1051.13C125.419 1050.52 125.185 1049.84 125.108 1049.14Z" fill="url(#paint84_linear_0_1)"/>
<path d="M146.372 1045.61L198.149 1016.75C198.702 1016.43 199.33 1016.26 199.97 1016.26C200.611 1016.26 201.239 1016.43 201.792 1016.75L253.569 1045.61C254.122 1045.92 254.582 1046.37 254.902 1046.92C255.222 1047.47 255.39 1048.1 255.39 1048.73C255.39 1049.37 255.222 1049.99 254.902 1050.54C254.582 1051.09 254.122 1051.55 253.569 1051.86L201.792 1081.61C201.24 1081.93 200.611 1082.1 199.971 1082.1C199.331 1082.1 198.703 1081.93 198.15 1081.61L146.372 1051.86C145.798 1051.57 145.317 1051.12 144.981 1050.57C144.645 1050.01 144.467 1049.38 144.467 1048.73C144.467 1048.09 144.645 1047.45 144.981 1046.9C145.317 1046.35 145.798 1045.9 146.372 1045.61Z" fill="url(#paint85_linear_0_1)"/>
<path d="M150.778 1052.39V999L200.432 1039.22L249.695 1003.41V1052.39L199.467 1081.04L150.778 1052.39Z" fill="url(#paint86_linear_0_1)"/>
</g>
<defs>
<linearGradient id="paint0_linear_0_1" x1="201.5" y1="896.002" x2="201.5" y2="689" gradientUnits="userSpaceOnUse">
<stop stop-color="#FF001A"/>
<stop offset="0.483" stop-color="#D33A8C"/>
<stop offset="1" stop-color="#AE325B"/>
</linearGradient>
<linearGradient id="paint1_linear_0_1" x1="201.5" y1="340" x2="201.5" y2="222" gradientUnits="userSpaceOnUse">
<stop stop-color="#FF001A"/>
<stop offset="0.483" stop-color="#D33A8C"/>
<stop offset="1" stop-color="#AE325B"/>
</linearGradient>
<linearGradient id="paint2_linear_0_1" x1="278.606" y1="684.255" x2="340.579" y2="1147.18" gradientUnits="userSpaceOnUse">
<stop stop-color="#FF001A"/>
<stop offset="0.483" stop-color="#D33A8C"/>
<stop offset="1" stop-color="#AE325B"/>
</linearGradient>
<linearGradient id="paint3_linear_0_1" x1="116.579" y1="684.255" x2="54.6061" y2="1147.18" gradientUnits="userSpaceOnUse">
<stop stop-color="#FF001A"/>
<stop offset="0.483" stop-color="#D33A8C"/>
<stop offset="1" stop-color="#AE325B"/>
</linearGradient>
<linearGradient id="paint4_linear_0_1" x1="75" y1="1388.31" x2="75" y2="1223.27" gradientUnits="userSpaceOnUse">
<stop stop-color="#0BB5E3"/>
<stop offset="1" stop-color="#2AF698"/>
</linearGradient>
<linearGradient id="paint5_linear_0_1" x1="75" y1="1388.31" x2="75" y2="1223.27" gradientUnits="userSpaceOnUse">
<stop stop-color="#0BB5E3" stop-opacity="0.282"/>
<stop offset="1" stop-color="#2AF698"/>
</linearGradient>
<linearGradient id="paint6_linear_0_1" x1="75" y1="1183.8" x2="75" y2="1379.46" gradientUnits="userSpaceOnUse">
<stop stop-color="#DC1D63"/>
<stop offset="0.187" stop-color="#E10531"/>
<stop offset="1" stop-color="#590606"/>
</linearGradient>
<linearGradient id="paint7_linear_0_1" x1="75" y1="1388.31" x2="75" y2="1223.27" gradientUnits="userSpaceOnUse">
<stop stop-color="#F52C2F"/>
<stop offset="1" stop-color="#FF6382"/>
</linearGradient>
<linearGradient id="paint8_linear_0_1" x1="75" y1="1224.81" x2="75" y2="1379.46" gradientUnits="userSpaceOnUse">
<stop stop-color="#FF6382"/>
<stop offset="1" stop-color="#E10531"/>
</linearGradient>
<linearGradient id="paint9_linear_0_1" x1="150" y1="1339.57" x2="-91.9425" y2="1343.42" gradientUnits="userSpaceOnUse">
<stop stop-color="#B42336" stop-opacity="0.129"/>
<stop offset="0.271" stop-color="#E10531"/>
<stop offset="0.35" stop-color="#F52C2F"/>
<stop offset="1" stop-color="#5B0606"/>
</linearGradient>
<linearGradient id="paint10_linear_0_1" x1="75" y1="1371.18" x2="75" y2="1224.39" gradientUnits="userSpaceOnUse">
<stop stop-color="#A35867"/>
<stop offset="1" stop-color="#E10531"/>
</linearGradient>
<linearGradient id="paint11_linear_0_1" x1="64.8227" y1="1231" x2="64.8227" y2="1286.54" gradientUnits="userSpaceOnUse">
<stop stop-color="#0BB5E3" stop-opacity="0"/>
<stop offset="0.669" stop-color="white" stop-opacity="0.624"/>
<stop offset="1" stop-color="#FF6382"/>
</linearGradient>
<linearGradient id="paint12_linear_0_1" x1="327" y1="1388.31" x2="327" y2="1223.27" gradientUnits="userSpaceOnUse">
<stop stop-color="#0BB5E3"/>
<stop offset="1" stop-color="#2AF698"/>
</linearGradient>
<linearGradient id="paint13_linear_0_1" x1="327" y1="1388.31" x2="327" y2="1223.27" gradientUnits="userSpaceOnUse">
<stop stop-color="#0BB5E3" stop-opacity="0.282"/>
<stop offset="1" stop-color="#2AF698"/>
</linearGradient>
<linearGradient id="paint14_linear_0_1" x1="327" y1="1183.8" x2="327" y2="1379.46" gradientUnits="userSpaceOnUse">
<stop stop-color="#DC1D63"/>
<stop offset="0.187" stop-color="#E10531"/>
<stop offset="1" stop-color="#590606"/>
</linearGradient>
<linearGradient id="paint15_linear_0_1" x1="327" y1="1388.31" x2="327" y2="1223.27" gradientUnits="userSpaceOnUse">
<stop stop-color="#F52C2F"/>
<stop offset="1" stop-color="#FF6382"/>
</linearGradient>
<linearGradient id="paint16_linear_0_1" x1="327" y1="1224.81" x2="327" y2="1379.46" gradientUnits="userSpaceOnUse">
<stop stop-color="#FF6382"/>
<stop offset="1" stop-color="#E10531"/>
</linearGradient>
<linearGradient id="paint17_linear_0_1" x1="402" y1="1339.57" x2="160.058" y2="1343.42" gradientUnits="userSpaceOnUse">
<stop stop-color="#B42336" stop-opacity="0.129"/>
<stop offset="0.271" stop-color="#E10531"/>
<stop offset="0.35" stop-color="#F52C2F"/>
<stop offset="1" stop-color="#5B0606"/>
</linearGradient>
<linearGradient id="paint18_linear_0_1" x1="327" y1="1371.18" x2="327" y2="1224.39" gradientUnits="userSpaceOnUse">
<stop stop-color="#A35867"/>
<stop offset="1" stop-color="#E10531"/>
</linearGradient>
<linearGradient id="paint19_linear_0_1" x1="316.823" y1="1231" x2="316.823" y2="1286.54" gradientUnits="userSpaceOnUse">
<stop stop-color="#0BB5E3" stop-opacity="0"/>
<stop offset="0.669" stop-color="white" stop-opacity="0.624"/>
<stop offset="1" stop-color="#FF6382"/>
</linearGradient>
<linearGradient id="paint20_linear_0_1" x1="200" y1="214.314" x2="200" y2="49.2679" gradientUnits="userSpaceOnUse">
<stop stop-color="#0BB5E3"/>
<stop offset="1" stop-color="#2AF698"/>
</linearGradient>
<linearGradient id="paint21_linear_0_1" x1="200" y1="214.314" x2="200" y2="49.2679" gradientUnits="userSpaceOnUse">
<stop stop-color="#0BB5E3" stop-opacity="0.282"/>
<stop offset="1" stop-color="#2AF698"/>
</linearGradient>
<linearGradient id="paint22_linear_0_1" x1="200" y1="9.79735" x2="200" y2="205.465" gradientUnits="userSpaceOnUse">
<stop stop-color="#DC1D63"/>
<stop offset="0.187" stop-color="#E10531"/>
<stop offset="1" stop-color="#590606"/>
</linearGradient>
<linearGradient id="paint23_linear_0_1" x1="200" y1="214.314" x2="200" y2="49.2679" gradientUnits="userSpaceOnUse">
<stop stop-color="#F52C2F"/>
<stop offset="1" stop-color="#FF6382"/>
</linearGradient>
<linearGradient id="paint24_linear_0_1" x1="200" y1="50.8131" x2="200" y2="205.465" gradientUnits="userSpaceOnUse">
<stop stop-color="#FF6382"/>
<stop offset="1" stop-color="#E10531"/>
</linearGradient>
<linearGradient id="paint25_linear_0_1" x1="275" y1="165.573" x2="33.0575" y2="169.417" gradientUnits="userSpaceOnUse">
<stop stop-color="#B42336" stop-opacity="0.129"/>
<stop offset="0.271" stop-color="#E10531"/>
<stop offset="0.35" stop-color="#F52C2F"/>
<stop offset="1" stop-color="#5B0606"/>
</linearGradient>
<linearGradient id="paint26_linear_0_1" x1="200" y1="197.177" x2="200" y2="50.3917" gradientUnits="userSpaceOnUse">
<stop stop-color="#A35867"/>
<stop offset="1" stop-color="#E10531"/>
</linearGradient>
<linearGradient id="paint27_linear_0_1" x1="189.823" y1="57.0038" x2="189.823" y2="112.543" gradientUnits="userSpaceOnUse">
<stop stop-color="#0BB5E3" stop-opacity="0"/>
<stop offset="0.669" stop-color="white" stop-opacity="0.624"/>
<stop offset="1" stop-color="#FF6382"/>
</linearGradient>
<linearGradient id="paint28_linear_0_1" x1="235.187" y1="617.152" x2="235.187" y2="648.21" gradientUnits="userSpaceOnUse">
<stop stop-color="#FF6382"/>
<stop offset="1" stop-color="#E10531"/>
</linearGradient>
<linearGradient id="paint29_linear_0_1" x1="235.188" y1="601.687" x2="235.188" y2="632.744" gradientUnits="userSpaceOnUse">
<stop stop-color="#FF6382"/>
<stop offset="1" stop-color="#E10531"/>
</linearGradient>
<linearGradient id="paint30_linear_0_1" x1="235.187" y1="586.914" x2="235.187" y2="617.972" gradientUnits="userSpaceOnUse">
<stop stop-color="#FF6382"/>
<stop offset="1" stop-color="#E10531"/>
</linearGradient>
<linearGradient id="paint31_linear_0_1" x1="235.188" y1="571.448" x2="235.188" y2="602.506" gradientUnits="userSpaceOnUse">
<stop stop-color="#FF6382"/>
<stop offset="1" stop-color="#E10531"/>
</linearGradient>
<linearGradient id="paint32_linear_0_1" x1="235.187" y1="556.164" x2="235.187" y2="587.222" gradientUnits="userSpaceOnUse">
<stop stop-color="#FF6382"/>
<stop offset="1" stop-color="#E10531"/>
</linearGradient>
<linearGradient id="paint33_linear_0_1" x1="235.188" y1="540.698" x2="235.188" y2="571.756" gradientUnits="userSpaceOnUse">
<stop stop-color="#FF6382"/>
<stop offset="1" stop-color="#E10531"/>
</linearGradient>
<linearGradient id="paint34_linear_0_1" x1="235.187" y1="525.926" x2="235.187" y2="556.983" gradientUnits="userSpaceOnUse">
<stop stop-color="#FF6382"/>
<stop offset="1" stop-color="#E10531"/>
</linearGradient>
<linearGradient id="paint35_linear_0_1" x1="235.188" y1="510.46" x2="235.188" y2="541.518" gradientUnits="userSpaceOnUse">
<stop stop-color="#FF6382"/>
<stop offset="1" stop-color="#E10531"/>
</linearGradient>
<linearGradient id="paint36_linear_0_1" x1="235.187" y1="496.201" x2="235.187" y2="527.259" gradientUnits="userSpaceOnUse">
<stop stop-color="#FF6382"/>
<stop offset="1" stop-color="#E10531"/>
</linearGradient>
<linearGradient id="paint37_linear_0_1" x1="235.188" y1="480.735" x2="235.188" y2="511.793" gradientUnits="userSpaceOnUse">
<stop stop-color="#FF6382"/>
<stop offset="1" stop-color="#E10531"/>
</linearGradient>
<linearGradient id="paint38_linear_0_1" x1="235.188" y1="466" x2="235.188" y2="496.508" gradientUnits="userSpaceOnUse">
<stop stop-color="#FF6382"/>
<stop offset="1" stop-color="#E10531"/>
</linearGradient>
<linearGradient id="paint39_linear_0_1" x1="162.689" y1="617.152" x2="162.689" y2="648.21" gradientUnits="userSpaceOnUse">
<stop stop-color="#FF6382"/>
<stop offset="1" stop-color="#E10531"/>
</linearGradient>
<linearGradient id="paint40_linear_0_1" x1="162.689" y1="601.687" x2="162.689" y2="632.744" gradientUnits="userSpaceOnUse">
<stop stop-color="#FF6382"/>
<stop offset="1" stop-color="#E10531"/>
</linearGradient>
<linearGradient id="paint41_linear_0_1" x1="162.689" y1="586.914" x2="162.689" y2="617.972" gradientUnits="userSpaceOnUse">
<stop stop-color="#FF6382"/>
<stop offset="1" stop-color="#E10531"/>
</linearGradient>
<linearGradient id="paint42_linear_0_1" x1="162.689" y1="571.449" x2="162.689" y2="602.507" gradientUnits="userSpaceOnUse">
<stop stop-color="#FF6382"/>
<stop offset="1" stop-color="#E10531"/>
</linearGradient>
<linearGradient id="paint43_linear_0_1" x1="162.689" y1="556.164" x2="162.689" y2="587.222" gradientUnits="userSpaceOnUse">
<stop stop-color="#FF6382"/>
<stop offset="1" stop-color="#E10531"/>
</linearGradient>
<linearGradient id="paint44_linear_0_1" x1="162.689" y1="540.698" x2="162.689" y2="571.756" gradientUnits="userSpaceOnUse">
<stop stop-color="#FF6382"/>
<stop offset="1" stop-color="#E10531"/>
</linearGradient>
<linearGradient id="paint45_linear_0_1" x1="162.689" y1="525.926" x2="162.689" y2="556.984" gradientUnits="userSpaceOnUse">
<stop stop-color="#FF6382"/>
<stop offset="1" stop-color="#E10531"/>
</linearGradient>
<linearGradient id="paint46_linear_0_1" x1="162.689" y1="510.46" x2="162.689" y2="541.518" gradientUnits="userSpaceOnUse">
<stop stop-color="#FF6382"/>
<stop offset="1" stop-color="#E10531"/>
</linearGradient>
<linearGradient id="paint47_linear_0_1" x1="162.689" y1="496.201" x2="162.689" y2="527.259" gradientUnits="userSpaceOnUse">
<stop stop-color="#FF6382"/>
<stop offset="1" stop-color="#E10531"/>
</linearGradient>
<linearGradient id="paint48_linear_0_1" x1="162.689" y1="480.735" x2="162.689" y2="511.793" gradientUnits="userSpaceOnUse">
<stop stop-color="#FF6382"/>
<stop offset="1" stop-color="#E10531"/>
</linearGradient>
<linearGradient id="paint49_linear_0_1" x1="162.691" y1="466" x2="162.691" y2="496.508" gradientUnits="userSpaceOnUse">
<stop stop-color="#FF6382"/>
<stop offset="1" stop-color="#E10531"/>
</linearGradient>
<linearGradient id="paint50_linear_0_1" x1="198.243" y1="479.894" x2="198.243" y2="662.134" gradientUnits="userSpaceOnUse">
<stop stop-color="#FF6382"/>
<stop offset="1" stop-color="#E10531"/>
</linearGradient>
<linearGradient id="paint51_linear_0_1" x1="216.475" y1="495.188" x2="216.475" y2="662.149" gradientUnits="userSpaceOnUse">
<stop stop-color="#E10531"/>
<stop offset="0.368" stop-color="#060001"/>
<stop offset="1" stop-color="white"/>
</linearGradient>
<linearGradient id="paint52_linear_0_1" x1="198.078" y1="570.445" x2="198.078" y2="488.508" gradientUnits="userSpaceOnUse">
<stop stop-color="#E10531"/>
<stop offset="1" stop-color="#FFD1B7"/>
</linearGradient>
<linearGradient id="paint53_linear_0_1" x1="235.914" y1="646.365" x2="235.914" y2="677.423" gradientUnits="userSpaceOnUse">
<stop stop-color="#FF6382"/>
<stop offset="1" stop-color="#E10531"/>
</linearGradient>
<linearGradient id="paint54_linear_0_1" x1="235.914" y1="630.899" x2="235.914" y2="661.957" gradientUnits="userSpaceOnUse">
<stop stop-color="#FF6382"/>
<stop offset="1" stop-color="#E10531"/>
</linearGradient>
<linearGradient id="paint55_linear_0_1" x1="235.914" y1="616.127" x2="235.914" y2="647.185" gradientUnits="userSpaceOnUse">
<stop stop-color="#FF6382"/>
<stop offset="1" stop-color="#E10531"/>
</linearGradient>
<linearGradient id="paint56_linear_0_1" x1="235.914" y1="600.661" x2="235.914" y2="631.719" gradientUnits="userSpaceOnUse">
<stop stop-color="#FF6382"/>
<stop offset="1" stop-color="#E10531"/>
</linearGradient>
<linearGradient id="paint57_linear_0_1" x1="235.914" y1="585.376" x2="235.914" y2="616.434" gradientUnits="userSpaceOnUse">
<stop stop-color="#FF6382"/>
<stop offset="1" stop-color="#E10531"/>
</linearGradient>
<linearGradient id="paint58_linear_0_1" x1="235.914" y1="569.911" x2="235.914" y2="600.969" gradientUnits="userSpaceOnUse">
<stop stop-color="#FF6382"/>
<stop offset="1" stop-color="#E10531"/>
</linearGradient>
<linearGradient id="paint59_linear_0_1" x1="235.914" y1="555.139" x2="235.914" y2="586.197" gradientUnits="userSpaceOnUse">
<stop stop-color="#FF6382"/>
<stop offset="1" stop-color="#E10531"/>
</linearGradient>
<linearGradient id="paint60_linear_0_1" x1="235.914" y1="539.673" x2="235.914" y2="570.731" gradientUnits="userSpaceOnUse">
<stop stop-color="#FF6382"/>
<stop offset="1" stop-color="#E10531"/>
</linearGradient>
<linearGradient id="paint61_linear_0_1" x1="235.914" y1="525.413" x2="235.914" y2="556.471" gradientUnits="userSpaceOnUse">
<stop stop-color="#FF6382"/>
<stop offset="1" stop-color="#E10531"/>
</linearGradient>
<linearGradient id="paint62_linear_0_1" x1="235.914" y1="509.948" x2="235.914" y2="541.006" gradientUnits="userSpaceOnUse">
<stop stop-color="#FF6382"/>
<stop offset="1" stop-color="#E10531"/>
</linearGradient>
<linearGradient id="paint63_linear_0_1" x1="235.914" y1="495.213" x2="235.914" y2="525.721" gradientUnits="userSpaceOnUse">
<stop stop-color="#FF6382"/>
<stop offset="1" stop-color="#E10531"/>
</linearGradient>
<linearGradient id="paint64_linear_0_1" x1="161.965" y1="646.365" x2="161.965" y2="677.423" gradientUnits="userSpaceOnUse">
<stop stop-color="#FF6382"/>
<stop offset="1" stop-color="#E10531"/>
</linearGradient>
<linearGradient id="paint65_linear_0_1" x1="161.965" y1="630.899" x2="161.965" y2="661.957" gradientUnits="userSpaceOnUse">
<stop stop-color="#FF6382"/>
<stop offset="1" stop-color="#E10531"/>
</linearGradient>
<linearGradient id="paint66_linear_0_1" x1="161.965" y1="616.127" x2="161.965" y2="647.185" gradientUnits="userSpaceOnUse">
<stop stop-color="#FF6382"/>
<stop offset="1" stop-color="#E10531"/>
</linearGradient>
<linearGradient id="paint67_linear_0_1" x1="161.965" y1="600.662" x2="161.965" y2="631.72" gradientUnits="userSpaceOnUse">
<stop stop-color="#FF6382"/>
<stop offset="1" stop-color="#E10531"/>
</linearGradient>
<linearGradient id="paint68_linear_0_1" x1="161.965" y1="585.376" x2="161.965" y2="616.434" gradientUnits="userSpaceOnUse">
<stop stop-color="#FF6382"/>
<stop offset="1" stop-color="#E10531"/>
</linearGradient>
<linearGradient id="paint69_linear_0_1" x1="161.965" y1="569.911" x2="161.965" y2="600.969" gradientUnits="userSpaceOnUse">
<stop stop-color="#FF6382"/>
<stop offset="1" stop-color="#E10531"/>
</linearGradient>
<linearGradient id="paint70_linear_0_1" x1="161.965" y1="555.138" x2="161.965" y2="586.196" gradientUnits="userSpaceOnUse">
<stop stop-color="#FF6382"/>
<stop offset="1" stop-color="#E10531"/>
</linearGradient>
<linearGradient id="paint71_linear_0_1" x1="161.965" y1="539.673" x2="161.965" y2="570.731" gradientUnits="userSpaceOnUse">
<stop stop-color="#FF6382"/>
<stop offset="1" stop-color="#E10531"/>
</linearGradient>
<linearGradient id="paint72_linear_0_1" x1="161.965" y1="525.413" x2="161.965" y2="556.471" gradientUnits="userSpaceOnUse">
<stop stop-color="#FF6382"/>
<stop offset="1" stop-color="#E10531"/>
</linearGradient>
<linearGradient id="paint73_linear_0_1" x1="161.965" y1="509.948" x2="161.965" y2="541.006" gradientUnits="userSpaceOnUse">
<stop stop-color="#FF6382"/>
<stop offset="1" stop-color="#E10531"/>
</linearGradient>
<linearGradient id="paint74_linear_0_1" x1="161.966" y1="495.213" x2="161.966" y2="525.721" gradientUnits="userSpaceOnUse">
<stop stop-color="#FF6382"/>
<stop offset="1" stop-color="#E10531"/>
</linearGradient>
<linearGradient id="paint75_linear_0_1" x1="180.253" y1="510.563" x2="180.253" y2="677.455" gradientUnits="userSpaceOnUse">
<stop stop-color="#E10531"/>
<stop offset="0.568" stop-color="#510212"/>
<stop offset="1" stop-color="#D7D7D7"/>
</linearGradient>
<linearGradient id="paint76_linear_0_1" x1="217.278" y1="510.563" x2="217.278" y2="677.687" gradientUnits="userSpaceOnUse">
<stop stop-color="#E10531"/>
<stop offset="0.568" stop-color="#510212"/>
<stop offset="1" stop-color="#D7D7D7"/>
</linearGradient>
<linearGradient id="paint77_linear_0_1" x1="254.877" y1="510.563" x2="254.877" y2="677.733" gradientUnits="userSpaceOnUse">
<stop stop-color="#E10531"/>
<stop offset="0.568" stop-color="#510212"/>
<stop offset="1" stop-color="#D7D7D7"/>
</linearGradient>
<linearGradient id="paint78_linear_0_1" x1="143.236" y1="510.285" x2="143.236" y2="677.687" gradientUnits="userSpaceOnUse">
<stop stop-color="#E10531"/>
<stop offset="0.568" stop-color="#510212"/>
<stop offset="1" stop-color="#D7D7D7"/>
</linearGradient>
<linearGradient id="paint79_linear_0_1" x1="200" y1="1148.31" x2="200" y2="983.268" gradientUnits="userSpaceOnUse">
<stop stop-color="#0BB5E3"/>
<stop offset="1" stop-color="#2AF698"/>
</linearGradient>
<linearGradient id="paint80_linear_0_1" x1="200" y1="1148.31" x2="200" y2="983.268" gradientUnits="userSpaceOnUse">
<stop stop-color="#0BB5E3" stop-opacity="0.282"/>
<stop offset="1" stop-color="#2AF698"/>
</linearGradient>
<linearGradient id="paint81_linear_0_1" x1="200" y1="943.797" x2="200" y2="1139.46" gradientUnits="userSpaceOnUse">
<stop stop-color="#DC1D63"/>
<stop offset="0.187" stop-color="#E10531"/>
<stop offset="1" stop-color="#590606"/>
</linearGradient>
<linearGradient id="paint82_linear_0_1" x1="200" y1="1148.31" x2="200" y2="983.268" gradientUnits="userSpaceOnUse">
<stop stop-color="#F52C2F"/>
<stop offset="1" stop-color="#FF6382"/>
</linearGradient>
<linearGradient id="paint83_linear_0_1" x1="200" y1="984.813" x2="200" y2="1139.46" gradientUnits="userSpaceOnUse">
<stop stop-color="#FF6382"/>
<stop offset="1" stop-color="#E10531"/>
</linearGradient>
<linearGradient id="paint84_linear_0_1" x1="275" y1="1099.57" x2="33.0575" y2="1103.42" gradientUnits="userSpaceOnUse">
<stop stop-color="#B42336" stop-opacity="0.129"/>
<stop offset="0.271" stop-color="#E10531"/>
<stop offset="0.35" stop-color="#F52C2F"/>
<stop offset="1" stop-color="#5B0606"/>
</linearGradient>
<linearGradient id="paint85_linear_0_1" x1="200" y1="1131.18" x2="200" y2="984.392" gradientUnits="userSpaceOnUse">
<stop stop-color="#A35867"/>
<stop offset="1" stop-color="#E10531"/>
</linearGradient>
<linearGradient id="paint86_linear_0_1" x1="189.823" y1="991.004" x2="189.823" y2="1046.54" gradientUnits="userSpaceOnUse">
<stop stop-color="#0BB5E3" stop-opacity="0"/>
<stop offset="0.669" stop-color="white" stop-opacity="0.624"/>
<stop offset="1" stop-color="#FF6382"/>
</linearGradient>
</defs>
</svg>
