<svg viewBox="0 0 100 21" fill="none" xmlns="http://www.w3.org/2000/svg">
<path d="M32.6678 14.4014L25.4881 1.94738C23.9141 -0.648357 20.0757 -0.675972 18.5569 2.05783L11.0183 15.0089C9.6099 17.3837 11.3496 20.366 14.1663 20.366H29.2712C32.1155 20.366 34.2418 17.3008 32.6678 14.4014Z" fill="#3156AA"/>
<path d="M22.3124 15.3681L21.8706 14.5949C21.4564 13.8769 20.5451 12.3305 20.5451 12.3305L14.47 1.78198C12.896 -0.565226 9.16811 -0.758526 7.5941 2.19619L0.524876 14.4292C-0.938674 16.9973 0.801017 20.3386 3.97665 20.3663H29.216C25.3224 20.3939 24.0798 18.378 22.3124 15.3681Z" fill="#1972E2"/>
<path d="M22.3124 15.3681L21.8706 14.5949C21.4564 13.8769 20.5451 12.3305 20.5451 12.3305L16.6237 5.42676L10.9904 15.0365C9.58214 17.4113 11.3218 20.3936 14.1385 20.3936H29.2158C25.2946 20.366 24.0797 18.3781 22.3124 15.3681Z" fill="url(#paint0_linear_410_118)"/>
<path d="M57.0405 19.2615V4.87451H68.9974V5.78578C68.9974 6.50374 68.4175 7.08364 67.6996 7.08364H60.0228V10.9496H67.6996V13.1588H60.0228V17.0247H67.6996C68.4175 17.0247 68.9974 17.6046 68.9974 18.3226V19.2339L57.0405 19.2615Z" fill="white"/>
<path d="M86.1731 4.87451H83.3564C82.8317 4.87451 82.3623 5.09542 82.0309 5.50963L78.6344 9.78983L75.2378 5.53725C74.9065 5.12304 74.437 4.90212 73.9124 4.90212H71.0957L76.8118 12.0818L71.0957 19.2615H73.9124C74.437 19.2615 74.9065 19.0406 75.2378 18.6264L78.6344 14.3738L82.0585 18.654C82.3899 19.0406 82.8594 19.2891 83.384 19.2891H86.2007L80.4845 12.1094L86.1731 4.87451Z" fill="white"/>
<path d="M47.679 17.7434L51.6002 10.8951V19.2346H54.5826V4.84766H52.7324C52.1525 4.84766 51.6002 5.15141 51.3241 5.67608L46.6297 14.2364L41.9353 5.67608C41.6591 5.15141 41.1068 4.84766 40.5269 4.84766H38.6768V19.2346H41.6591V10.8951L45.5803 17.7434H47.679Z" fill="white"/>
<path d="M93.9605 19.4272C89.8184 19.4824 86.4495 16.2239 86.4219 12.0818C86.4219 9.81739 87.1122 7.93962 88.4101 6.64176C89.708 5.37151 91.5857 4.68115 93.8225 4.68115C96.4458 4.68115 98.5169 5.59242 100.008 7.35973L99.0692 8.16054C98.4893 8.65759 97.6332 8.68521 96.9981 8.21577C96.1697 7.58064 95.1203 7.27688 93.9329 7.27688C91.0058 7.27688 89.2661 9.04419 89.2661 12.0266C89.2661 15.0365 91.061 16.8867 93.9329 16.8867C95.1479 16.8867 96.1697 16.5553 96.9981 15.9478C97.6056 15.4783 98.4616 15.506 99.0692 16.003L100.008 16.8038C98.5169 18.5435 96.5287 19.4272 93.9605 19.4272Z" fill="white"/>
<defs>
<linearGradient id="paint0_linear_410_118" x1="-8.04454" y1="7.14451" x2="26.1487" y2="56.6751" gradientUnits="userSpaceOnUse">
<stop stop-color="#264CA2" stop-opacity="0"/>
<stop offset="1" stop-color="#234588"/>
</linearGradient>
</defs>
</svg>
