<svg width="560" height="321" viewBox="0 0 560 321" fill="none" xmlns="http://www.w3.org/2000/svg">
<path d="M453.689 239.327L507.775 135.709H496.694C494.651 135.709 493.527 133.334 494.823 131.754L552.468 61.4971C554.966 58.4521 559.901 60.3834 559.669 64.3153L555.617 133.018C555.385 136.951 551.898 139.882 547.983 139.434L540.258 138.55L486.594 254.767C485.197 257.792 482.168 259.73 478.836 259.73H460.237L453.689 239.327Z" fill="url(#paint0_linear_0_1)"/>
<path d="M408.972 166.655L447.156 251.475C449.417 256.499 454.415 259.73 459.924 259.73H479.609C482.22 259.73 484.626 258.313 485.893 256.029L486.594 254.767C484.479 254.767 482.542 253.582 481.581 251.698L430.706 152.016L408.972 166.655Z" fill="url(#paint1_linear_0_1)"/>
<path d="M435.844 162.084C432.016 159.061 426.421 159.949 423.718 164.011L367.578 248.358C363.081 255.113 355.504 259.172 347.389 259.172H339.489L333.06 240.652C333.06 240.652 385.251 160.627 398.703 148.521C398.703 148.521 412.1 136.447 425.308 145.576C428.798 147.987 431.447 151.43 433.065 155.351L435.844 162.084Z" fill="url(#paint2_linear_0_1)"/>
<path d="M272 190.844C272 190.844 281.398 179.097 299.608 177.27C299.608 177.27 308.257 180.216 325.488 211.092C342.719 241.968 354.156 256.048 367.578 248.357L366.467 250.202C362.805 256.282 356.226 260 349.128 260H341.705C333.533 260 325.86 256.071 321.088 249.437C307.677 230.794 280.238 193.738 272 190.844Z" fill="url(#paint3_linear_0_1)"/>
<path opacity="0.7" d="M553.164 85.8133C553.153 85.8133 553.141 85.8127 553.129 85.8113C552.959 85.7921 552.837 85.6385 552.856 85.4684L553.236 82.1137C553.255 81.9436 553.408 81.8204 553.579 81.8407C553.749 81.8599 553.872 82.0135 553.852 82.1836L553.472 85.5382C553.454 85.6964 553.32 85.8133 553.164 85.8133Z" fill="white"/>
<path opacity="0.7" d="M505.045 128.159C504.979 128.159 504.912 128.138 504.856 128.095C504.72 127.99 504.695 127.796 504.799 127.66L552.399 65.8099C552.898 65.1624 553.709 64.9418 554.467 65.2483C555.224 65.5547 555.654 66.2773 555.562 67.0894L554.722 74.5031C554.703 74.6732 554.549 74.7964 554.379 74.7761C554.209 74.7569 554.087 74.6033 554.106 74.4332L554.946 67.0195C555.019 66.3783 554.608 65.9743 554.234 65.8232C553.86 65.6723 553.284 65.6768 552.891 66.1882L505.29 128.038C505.229 128.118 505.138 128.159 505.045 128.159Z" fill="white"/>
<path opacity="0.6" d="M397.059 192.999C396.999 192.999 396.939 192.981 396.886 192.946C396.744 192.85 396.706 192.657 396.802 192.515L421.42 156.025C422.257 154.784 423.648 154.11 425.141 154.224C426.634 154.337 427.907 155.212 428.548 156.566L427.987 156.831C427.443 155.682 426.362 154.938 425.094 154.842C423.827 154.746 422.645 155.317 421.934 156.372L397.316 192.862C397.256 192.951 397.158 192.999 397.059 192.999Z" fill="white"/>
<path opacity="0.6" d="M390.662 202.481C390.602 202.481 390.542 202.464 390.489 202.428C390.347 202.332 390.309 202.14 390.405 201.998L391.984 199.658C392.079 199.516 392.272 199.479 392.414 199.574C392.556 199.67 392.594 199.863 392.498 200.005L390.919 202.344C390.859 202.433 390.761 202.481 390.662 202.481Z" fill="white"/>
<path d="M204.464 273.024C199.628 271.509 195.966 267.487 194.869 262.488L187.293 227.961L127.453 231.084L120.684 267.296C119.736 272.368 123.952 277.37 128.741 279.152L153.954 288.537C158.644 290.282 163.664 290.925 168.635 290.416L221.501 285.007C223.046 284.848 224.267 283.611 224.421 282.048C224.575 280.484 225.631 278.713 224.147 278.248L204.464 273.024Z" fill="#97A6B7"/>
<path d="M205.021 270.907C200.19 269.412 196.533 265.441 195.438 260.505L187.876 226.414L129.495 229.488L122.727 265.246C121.779 270.254 124.59 275.214 129.373 276.973L154.56 286.235C159.244 287.957 164.26 288.591 169.225 288.088L222.039 282.736C223.583 282.579 224.803 281.357 224.957 279.813C225.111 278.269 224.157 276.83 222.675 276.371L205.021 270.907Z" fill="url(#paint4_linear_0_1)"/>
<path d="M299.517 202.001L296.932 46.6658C296.879 43.4805 294.209 40.8126 290.99 40.7368L23.9425 34.4493C19.8788 34.3537 16.5929 37.2152 16.6527 40.8088L19.5089 212.478L299.517 202.001Z" fill="url(#paint5_linear_0_1)"/>
<path d="M25.3047 64.5626L27.5358 198.661C27.5915 202.008 30.7296 204.607 34.4987 204.437L287.655 193.02C290.676 192.884 293.101 190.33 293.051 187.345L291.062 67.7445L25.3047 64.5626Z" fill="url(#paint6_linear_0_1)"/>
<path d="M291.062 67.7446L290.833 54.0189C290.785 51.0948 288.327 48.6524 285.364 48.5912L31.6784 43.3511C27.982 43.2748 24.994 45.8947 25.0486 49.1733L25.3047 64.5627L291.062 67.7446Z" fill="url(#paint7_linear_0_1)"/>
<path d="M43.6635 53.8138C43.6827 54.9661 42.6475 55.8845 41.3496 55.865C40.0497 55.8455 38.9789 54.893 38.9597 53.7375C38.9406 52.5821 39.9802 51.6638 41.2801 51.6864C42.578 51.7091 43.6444 52.6615 43.6635 53.8138Z" fill="#9D3060"/>
<path d="M53.7877 53.9777C53.8068 55.1232 52.7838 56.0365 51.501 56.0172C50.2164 55.9979 49.158 55.051 49.1389 53.9023C49.1199 52.7537 50.1472 51.8406 51.432 51.863C52.7147 51.8853 53.7686 52.8321 53.7877 53.9777Z" fill="#9D3060"/>
<path d="M63.7939 54.1397C63.8128 55.2786 62.8017 56.1865 61.5338 56.1675C60.2641 56.1484 59.2179 55.2072 59.199 54.0653C59.18 52.9234 60.1953 52.0155 61.4651 52.0375C62.7331 52.0596 63.7749 53.0008 63.7939 54.1397Z" fill="#9D3060"/>
<path d="M19.5088 212.478L20.0792 246.762C20.139 250.356 23.5182 253.099 27.5763 252.86L294.258 237.138C297.472 236.948 300.052 234.187 299.999 231.002L299.5 201.005L19.5088 212.478Z" fill="white"/>
<path d="M65.8785 23.4122C76.3284 40.2445 85.6824 58.41 76.4274 108.844C67.3628 158.242 67.8098 182.028 76.4059 202.547L266.918 193.955C261.295 183.46 260.323 176.608 259.561 165.232C256.75 123.284 281.834 82.2072 266.823 38.3542C260.3 19.2998 248.823 7.84102 240.52 1.28953C174.867 0.859798 109.214 0.429955 43.5615 0C50.0076 4.45392 58.6432 11.7579 65.8785 23.4122Z" fill="url(#paint8_linear_0_1)"/>
<path d="M245.661 160.504C245.668 160.925 245.678 161.347 245.69 161.769C245.701 162.165 245.321 162.496 244.832 162.511L85.9172 167.425C85.3791 167.441 84.9418 167.077 84.9826 166.641C85.0221 166.22 85.0617 165.795 85.1014 165.366C85.1354 164.998 85.5042 164.706 85.9594 164.692L244.726 159.783C245.232 159.767 245.654 160.093 245.661 160.504Z" fill="#D8DEE8"/>
<path d="M246.151 147.088C246.114 147.511 246.08 147.935 246.046 148.358C246.017 148.731 245.647 149.024 245.186 149.038L86.668 153.521C86.1358 153.537 85.7023 153.178 85.7357 152.747C85.7683 152.326 85.8009 151.901 85.8332 151.473C85.8615 151.1 86.2339 150.803 86.6948 150.79L245.22 146.306C245.755 146.29 246.188 146.655 246.151 147.088Z" fill="#D8DEE8"/>
<path d="M246.76 173.874C246.823 174.294 246.889 174.713 246.957 175.131C247.026 175.555 246.636 175.934 246.109 175.951L87.6647 181.305C87.1245 181.323 86.6847 180.954 86.7275 180.517C86.7685 180.096 86.8102 179.672 86.8525 179.241C86.8885 178.875 87.2551 178.588 87.7075 178.572L245.829 173.23C246.299 173.214 246.704 173.495 246.76 173.874Z" fill="#D8DEE8"/>
<path d="M247.837 133.646C247.769 134.071 247.702 134.497 247.636 134.923C247.582 135.277 247.22 135.546 246.78 135.557L87.6156 139.635C87.0898 139.648 86.6605 139.297 86.6856 138.871C86.7105 138.449 86.7352 138.025 86.7597 137.598C86.7815 137.219 87.1576 136.916 87.625 136.904L246.916 132.823C247.47 132.809 247.908 133.2 247.837 133.646Z" fill="#D8DEE8"/>
<path d="M249.737 187.181C249.863 187.598 249.992 188.014 250.124 188.43C250.266 188.878 249.869 189.316 249.3 189.337L90.4955 195.181C89.9671 195.2 89.5294 194.848 89.5532 194.419C89.5766 193.998 89.6022 193.571 89.6297 193.138C89.6534 192.765 90.0233 192.466 90.4839 192.449L248.823 186.623C249.252 186.607 249.634 186.841 249.737 187.181Z" fill="#D8DEE8"/>
<path d="M250.288 120.202C250.203 120.627 250.118 121.053 250.034 121.479C249.966 121.824 249.607 122.08 249.177 122.09L90.0812 125.742C89.5617 125.754 89.1365 125.408 89.1538 124.987C89.1713 124.566 89.1885 124.142 89.2054 123.716C89.2206 123.332 89.6007 123.023 90.0743 123.012L249.373 119.356C249.938 119.343 250.378 119.75 250.288 120.202Z" fill="#D8DEE8"/>
<path d="M252.297 39.4815C252.698 39.4798 253.054 39.6927 253.168 40.0046C253.323 40.429 253.475 40.8553 253.622 41.2851C253.623 41.2882 253.625 41.2912 253.626 41.2943C253.783 41.7536 253.353 42.2058 252.765 42.2083L89.0336 42.9046C88.6048 42.9064 88.2341 42.6594 88.1471 42.3187C88.0387 41.8949 87.9284 41.4743 87.8161 41.0572C87.6942 40.6045 88.1129 40.1796 88.6839 40.1771L252.297 39.4815Z" fill="#D8DEE8"/>
<path d="M256.692 53.3139C256.765 53.7404 256.835 54.1669 256.901 54.5931C256.968 55.0244 256.555 55.4053 256.019 55.4095L91.7003 56.6634C91.2388 56.6669 90.8487 56.3835 90.7964 56.0115C90.7368 55.587 90.6758 55.1658 90.6136 54.7476C90.5495 54.317 90.9581 53.9405 91.4926 53.9365L255.786 52.6829C256.239 52.6793 256.629 52.9499 256.692 53.3139Z" fill="#D8DEE8"/>
<path d="M246.237 28.2889L84.262 28.9579C83.8803 28.9594 83.5396 28.7632 83.4109 28.4715C81.8602 24.9593 80.0991 21.651 78.1114 18.4492C77.1097 16.8358 76.0587 15.2609 74.9625 13.722C74.6144 13.2333 75.0419 12.6249 75.7367 12.6268L235.038 13.0779C235.301 13.0787 235.552 13.1718 235.724 13.3337C240.13 17.4873 243.907 22.1324 247.038 27.2414C247.332 27.7224 246.898 28.2862 246.237 28.2889Z" fill="#D8DEE8"/>
<path d="M253.035 106.77C252.948 107.196 252.862 107.621 252.774 108.047C252.704 108.391 252.343 108.647 251.913 108.655L92.3073 111.869C91.7939 111.88 91.3727 111.538 91.383 111.121C91.3935 110.696 91.4035 110.272 91.4133 109.85C91.4224 109.461 91.8062 109.149 92.2856 109.14L252.121 105.921C252.686 105.91 253.127 106.318 253.035 106.77Z" fill="#D8DEE8"/>
<path d="M255.575 93.3638C255.503 93.7887 255.43 94.2138 255.356 94.6393C255.294 94.9923 254.926 95.2577 254.486 95.2653L93.8493 98.0236C93.3426 98.0323 92.9261 97.698 92.9282 97.2871C92.9305 96.8615 92.9322 96.4381 92.9335 96.0168C92.9348 95.6222 93.3228 95.3032 93.8092 95.2948L254.659 92.5329C255.214 92.5233 255.651 92.9185 255.575 93.3638Z" fill="#D8DEE8"/>
<path d="M257.388 79.9845C257.348 80.4105 257.305 80.8367 257.261 81.2631C257.222 81.6344 256.842 81.9211 256.383 81.9277L93.7292 84.2188C93.2322 84.2258 92.8217 83.9022 92.8119 83.4992C92.8016 83.074 92.7907 82.6512 92.779 82.2309C92.768 81.8281 93.1612 81.4978 93.6578 81.4908L256.471 79.1973C257.002 79.1898 257.429 79.5553 257.388 79.9845Z" fill="#D8DEE8"/>
<path d="M257.936 66.6366C257.944 67.0627 257.949 67.4889 257.952 67.9153C257.954 68.3142 257.559 68.6392 257.067 68.6446L93.1069 70.4332C92.6242 70.4385 92.2219 70.1308 92.1947 69.7397C92.1652 69.3148 92.1346 68.893 92.1033 68.4737C92.0722 68.0595 92.4723 67.7113 92.9839 67.7058L257.019 65.9166C257.516 65.9111 257.928 66.2337 257.936 66.6366Z" fill="#D8DEE8"/>
<path d="M166.468 68.8967C166.468 88.7963 150.433 106 130.591 107.326C110.682 108.657 94.4932 93.5079 94.4932 73.485C94.4932 53.4621 110.682 36.2486 130.591 35.0411C150.433 33.8377 166.468 48.9971 166.468 68.8967Z" fill="#9D3060"/>
<path d="M170.727 70.1714C170.727 90.071 154.692 107.275 134.851 108.601C114.942 109.932 98.7524 94.7826 98.7524 74.7597C98.7524 54.7369 114.942 37.5233 134.851 36.3158C154.692 35.1124 170.727 50.2718 170.727 70.1714Z" fill="url(#paint9_linear_0_1)"/>
<path d="M133.583 92.0163C132.022 92.1184 130.571 91.3924 129.763 90.0954L116.197 68.3111C114.925 66.2697 115.61 63.4735 117.726 62.0662C119.84 60.6597 122.583 61.1735 123.853 63.2141L133.261 78.3358L145.675 53.0529C146.789 50.7839 149.466 49.7431 151.652 50.7272C153.838 51.7109 154.708 54.3464 153.595 56.6139L137.553 89.3131C136.818 90.8103 135.358 91.8407 133.739 92.0034C133.687 92.0084 133.635 92.0129 133.583 92.0163Z" fill="white"/>
<path d="M97.5118 177.968C97.5118 177.968 107.08 181.18 108.094 197.029C106.533 196.888 102.89 196.972 102.89 196.972C102.89 196.972 103.565 185.452 96.752 183.116C97.301 181.778 97.5118 177.968 97.5118 177.968Z" fill="url(#paint10_linear_0_1)"/>
<path d="M62.0176 176.457C62.2609 179.376 62.504 182.294 62.7472 185.213C67.5621 183.971 72.8146 182.529 78.4464 182.331C85.7458 182.075 92.4134 182.974 98.3333 184.451C98.5961 184.089 99.1529 183.22 99.4098 181.795C99.8234 179.5 99.1306 177.579 99.0023 177.237C95.9898 176.128 92.7179 175.185 89.2065 174.521C79.1034 172.612 69.9311 174.193 62.0176 176.457Z" fill="url(#paint11_linear_0_1)"/>
<path d="M61.5632 178.976C61.5775 177.922 61.6581 176.606 62.0177 176.457C62.3562 176.316 62.8113 177.277 63.0069 177.809C63.0883 178.031 63.268 178.568 63.3802 180.271C63.5248 182.466 63.3562 183.538 63.2017 184.2C63.1088 184.598 62.9636 185.201 62.7475 185.213C62.5739 185.223 62.4229 184.839 62.1982 184.096C61.8952 183.096 61.5299 181.429 61.5632 178.976Z" fill="url(#paint12_linear_0_1)"/>
<path d="M52.6548 197.306C54.6847 197.705 59.612 198.886 59.612 198.886C59.612 198.886 56.4007 188.597 62.4514 183.947C62.6079 183.176 62.7667 181.95 62.5759 180.471C62.4282 179.327 62.12 178.41 61.854 177.774C59.2866 179.179 53.6867 183.96 52.6548 197.306Z" fill="url(#paint13_linear_0_1)"/>
<path d="M10.2192 199.586C10.2192 199.586 10.4728 194.143 19.0982 194.241C20.4533 195.246 20.521 199.689 20.521 199.689L10.2192 199.586Z" fill="url(#paint14_linear_0_1)"/>
<path d="M2.52954 306.768L26.1395 320.697L40.3155 268.093L16.9057 197.688L10.2193 199.586L0.033029 301.227C-0.19813 303.533 0.799914 305.748 2.52954 306.768Z" fill="url(#paint15_linear_0_1)"/>
<path opacity="0.3" d="M40.3154 268.093L16.9055 197.688L10.2192 199.586C11.8676 205.837 12.6576 215.995 13.0291 221.647C14.6097 245.69 19.8502 252.365 17.3132 269.129C15.2013 283.083 10.5819 285.023 10.9861 294.407C11.4263 304.625 17.3663 313.084 24.4065 319.675L26.1395 320.697L40.3154 268.093Z" fill="url(#paint16_linear_0_1)"/>
<path d="M16.9058 197.688L142.484 199.001L161.568 307.158L26.1397 320.697L16.9058 197.688Z" fill="url(#paint17_linear_0_1)"/>
<g opacity="0.2">
<path d="M142.484 199.001L101.033 198.568C100.262 200.806 99.0821 203.902 97.3588 207.404C78.5112 245.71 34.7034 250.655 35.5031 257.04C36.6979 266.58 132.912 252.76 135.31 265.556C136.467 271.728 116.558 285.991 95.544 291.593C70.0958 298.378 51.192 290.447 38.5228 305.25C34.2153 310.283 32.3112 316.135 31.3828 320.089L161.568 307.158L142.484 199.001Z" fill="url(#paint18_linear_0_1)"/>
</g>
<path d="M19.0986 194.241C17.6409 194.224 15.6013 194.018 13.3807 195.301C12.9062 195.575 12.4873 195.878 12.1196 196.186L13.1428 195.833C14.7878 195.367 17.0539 196.035 17.8995 197.699C18.9384 199.742 19.3122 204.447 19.5391 206.779C20.1848 213.408 24.1486 254.61 24.1486 254.61C24.4451 258.081 27.0645 260.698 30.1559 260.616L146.482 253.981C147.341 253.96 148.189 253.68 148.896 253.115C150.372 251.938 151.039 249.902 150.697 247.969L144.972 200.363C144.488 197.621 142.408 195.633 139.993 195.605L19.0986 194.241Z" fill="url(#paint19_linear_0_1)"/>
<path d="M20.3857 194.255C18.9288 194.239 17.1997 194.019 15.2707 194.517C14.7502 194.651 13.9173 194.899 13.5498 195.207C13.5498 195.207 17.6405 194.272 19.1873 197.712C20.1308 199.811 20.599 204.459 20.8259 206.789C21.4711 213.417 25.4324 254.606 25.4324 254.606C25.7288 258.076 28.3465 260.692 31.436 260.61L148.964 257.517C149.822 257.495 150.669 257.214 151.376 256.649C152.85 255.471 153.515 253.436 153.174 251.505L146.183 200.375C145.698 197.634 143.62 195.647 141.207 195.619L20.3857 194.255Z" fill="url(#paint20_linear_0_1)"/>
<path opacity="0.1" d="M153.174 251.505L146.183 200.375C145.698 197.634 143.62 195.646 141.207 195.619L20.3861 194.255C18.9293 194.239 17.2001 194.019 15.2711 194.517C14.7507 194.651 13.9178 194.899 13.5503 195.207C13.5503 195.207 17.641 194.272 19.1877 197.712C19.3365 198.043 19.4721 198.442 19.598 198.881C31.386 199.469 43.1075 199.251 54.7628 200.13C77.6115 201.813 100.461 202.032 121.559 211.451C128.262 214.443 132.845 225.035 131.032 229.91C129.725 233.427 125.256 233.139 123.694 237.763C122.051 242.63 125.99 245.933 124.338 249.35C122.606 252.934 117.336 251.241 108.776 253.826C104.044 255.256 100.407 257.356 98.1325 258.855L148.965 257.517C149.822 257.495 150.669 257.214 151.376 256.649C152.85 255.471 153.516 253.436 153.174 251.505Z" fill="url(#paint21_linear_0_1)"/>
<path d="M97.8861 267.359L83.1684 271.065L81.608 271.206C80.0344 271.348 78.6792 269.976 78.6104 268.156L77.9607 250.948C77.8919 249.127 79.1386 247.616 80.7169 247.589L82.2862 247.563L97.087 249.453C98.4954 249.428 99.681 248.662 99.7447 250.36L100.348 266.414C100.411 268.112 99.2903 267.233 97.8861 267.359Z" fill="url(#paint22_linear_0_1)"/>
<path d="M99.0008 269.723L82.6973 271.198C81.1247 271.34 79.7701 269.969 79.7015 268.149L79.052 250.945C78.9834 249.125 80.2294 247.614 81.8068 247.587L98.1588 247.313C99.5664 247.29 100.761 248.66 100.824 250.358L101.427 266.407C101.491 268.105 100.404 269.596 99.0008 269.723Z" fill="url(#paint23_linear_0_1)"/>
<defs>
<linearGradient id="paint0_linear_0_1" x1="467.135" y1="258.953" x2="539.692" y2="101.436" gradientUnits="userSpaceOnUse">
<stop stop-color="#FE7062"/>
<stop offset="1" stop-color="#FF928E"/>
</linearGradient>
<linearGradient id="paint1_linear_0_1" x1="431.223" y1="168.208" x2="468.432" y2="263.71" gradientUnits="userSpaceOnUse">
<stop stop-color="#FE7062"/>
<stop offset="1" stop-color="#FF928E"/>
</linearGradient>
<linearGradient id="paint2_linear_0_1" x1="328.211" y1="270.732" x2="405.729" y2="169.649" gradientUnits="userSpaceOnUse">
<stop stop-color="#FE7062"/>
<stop offset="1" stop-color="#FF928E"/>
</linearGradient>
<linearGradient id="paint3_linear_0_1" x1="294.467" y1="174.584" x2="350.263" y2="273.777" gradientUnits="userSpaceOnUse">
<stop stop-color="#FE7062"/>
<stop offset="1" stop-color="#FF928E"/>
</linearGradient>
<linearGradient id="paint4_linear_0_1" x1="172.335" y1="240.536" x2="173.812" y2="274.652" gradientUnits="userSpaceOnUse">
<stop offset="0.494" stop-color="#EBEFF2"/>
<stop offset="1" stop-color="white"/>
</linearGradient>
<linearGradient id="paint5_linear_0_1" x1="179.055" y1="197.98" x2="72.9188" y2="-152.455" gradientUnits="userSpaceOnUse">
<stop stop-color="#444B8C"/>
<stop offset="0.9964" stop-color="#26264F"/>
</linearGradient>
<linearGradient id="paint6_linear_0_1" x1="155.196" y1="50.0672" x2="169.791" y2="345.893" gradientUnits="userSpaceOnUse">
<stop stop-color="#FFC444"/>
<stop offset="0.9964" stop-color="#F36F56"/>
</linearGradient>
<linearGradient id="paint7_linear_0_1" x1="99.1515" y1="-140.598" x2="192.235" y2="174.669" gradientUnits="userSpaceOnUse">
<stop stop-color="#FF9085"/>
<stop offset="1" stop-color="#FB6FBB"/>
</linearGradient>
<linearGradient id="paint8_linear_0_1" x1="131.158" y1="-91.8682" x2="159.934" y2="60.8611" gradientUnits="userSpaceOnUse">
<stop stop-color="#EBEFF2"/>
<stop offset="1" stop-color="white"/>
</linearGradient>
<linearGradient id="paint9_linear_0_1" x1="98.7524" y1="72.4657" x2="170.727" y2="72.4657" gradientUnits="userSpaceOnUse">
<stop stop-color="#FF9085"/>
<stop offset="1" stop-color="#FB6FBB"/>
</linearGradient>
<linearGradient id="paint10_linear_0_1" x1="96.752" y1="187.498" x2="108.094" y2="187.498" gradientUnits="userSpaceOnUse">
<stop stop-color="#444B8C"/>
<stop offset="0.9964" stop-color="#26264F"/>
</linearGradient>
<linearGradient id="paint11_linear_0_1" x1="78.6294" y1="210.534" x2="81.352" y2="169.998" gradientUnits="userSpaceOnUse">
<stop offset="0.1" stop-color="#311944"/>
<stop offset="0.267" stop-color="#371B47"/>
<stop offset="0.4803" stop-color="#462150"/>
<stop offset="0.7186" stop-color="#612A5F"/>
<stop offset="0.9736" stop-color="#853774"/>
<stop offset="1" stop-color="#893976"/>
</linearGradient>
<linearGradient id="paint12_linear_0_1" x1="63.3657" y1="181.331" x2="94.507" y2="198.027" gradientUnits="userSpaceOnUse">
<stop offset="0.1" stop-color="#311944"/>
<stop offset="0.267" stop-color="#371B47"/>
<stop offset="0.4803" stop-color="#462150"/>
<stop offset="0.7186" stop-color="#612A5F"/>
<stop offset="0.9736" stop-color="#853774"/>
<stop offset="1" stop-color="#893976"/>
</linearGradient>
<linearGradient id="paint13_linear_0_1" x1="52.6548" y1="188.33" x2="62.6632" y2="188.33" gradientUnits="userSpaceOnUse">
<stop stop-color="#444B8C"/>
<stop offset="0.9964" stop-color="#26264F"/>
</linearGradient>
<linearGradient id="paint14_linear_0_1" x1="19.1033" y1="233.453" x2="1.30352" y2="70.7462" gradientUnits="userSpaceOnUse">
<stop offset="0.1" stop-color="#311944"/>
<stop offset="0.6853" stop-color="#6D2F66"/>
<stop offset="1" stop-color="#893976"/>
</linearGradient>
<linearGradient id="paint15_linear_0_1" x1="96.548" y1="300.968" x2="-21.3255" y2="235.334" gradientUnits="userSpaceOnUse">
<stop stop-color="#311944"/>
<stop offset="1" stop-color="#893976"/>
</linearGradient>
<linearGradient id="paint16_linear_0_1" x1="-9.81934" y1="209.647" x2="25.7261" y2="269.254" gradientUnits="userSpaceOnUse">
<stop stop-color="#311944"/>
<stop offset="1" stop-color="#893976"/>
</linearGradient>
<linearGradient id="paint17_linear_0_1" x1="80.7516" y1="138.542" x2="93.7157" y2="312.535" gradientUnits="userSpaceOnUse">
<stop offset="0.1" stop-color="#311944"/>
<stop offset="0.6853" stop-color="#6D2F66"/>
<stop offset="1" stop-color="#893976"/>
</linearGradient>
<linearGradient id="paint18_linear_0_1" x1="57.722" y1="237.038" x2="153.183" y2="310.59" gradientUnits="userSpaceOnUse">
<stop stop-color="#311944"/>
<stop offset="1" stop-color="#893976"/>
</linearGradient>
<linearGradient id="paint19_linear_0_1" x1="33.1322" y1="227.057" x2="73.3302" y2="225.496" gradientUnits="userSpaceOnUse">
<stop offset="0.1" stop-color="#311944"/>
<stop offset="0.6853" stop-color="#6D2F66"/>
<stop offset="1" stop-color="#893976"/>
</linearGradient>
<linearGradient id="paint20_linear_0_1" x1="95.7003" y1="361.896" x2="81.742" y2="205.033" gradientUnits="userSpaceOnUse">
<stop offset="0.1" stop-color="#311944"/>
<stop offset="0.267" stop-color="#371B47"/>
<stop offset="0.4803" stop-color="#462150"/>
<stop offset="0.7186" stop-color="#612A5F"/>
<stop offset="0.9736" stop-color="#853774"/>
<stop offset="1" stop-color="#893976"/>
</linearGradient>
<linearGradient id="paint21_linear_0_1" x1="102.505" y1="398.282" x2="78.8309" y2="181.879" gradientUnits="userSpaceOnUse">
<stop stop-color="#311944"/>
<stop offset="1" stop-color="#893976"/>
</linearGradient>
<linearGradient id="paint22_linear_0_1" x1="135.885" y1="284.244" x2="64.5004" y2="246.929" gradientUnits="userSpaceOnUse">
<stop stop-color="#FFC444"/>
<stop offset="0.9964" stop-color="#F36F56"/>
</linearGradient>
<linearGradient id="paint23_linear_0_1" x1="71.8891" y1="252.669" x2="144.743" y2="278.739" gradientUnits="userSpaceOnUse">
<stop stop-color="#FFC444"/>
<stop offset="0.9964" stop-color="#F36F56"/>
</linearGradient>
</defs>
</svg>
