<svg width="514" height="318" viewBox="0 0 514 318" fill="none" xmlns="http://www.w3.org/2000/svg">
<path d="M140 299C217.32 299 280 236.32 280 159C280 81.6801 217.32 19 140 19C62.6801 19 0 81.6801 0 159C0 236.32 62.6801 299 140 299Z" fill="url(#paint0_linear_0_1)"/>
<path d="M140 292.928C213.966 292.928 273.928 232.967 273.928 159C273.928 85.0335 213.966 25.0718 140 25.0718C66.0331 25.0718 6.07129 85.0335 6.07129 159C6.07129 232.967 66.0331 292.928 140 292.928Z" fill="url(#paint1_linear_0_1)"/>
<path d="M140 276.149C204.7 276.149 257.149 223.7 257.149 159C257.149 94.3005 204.7 41.8511 140 41.8511C75.3005 41.8511 22.8511 94.3005 22.8511 159C22.8511 223.7 75.3005 276.149 140 276.149Z" fill="url(#paint2_linear_0_1)"/>
<path d="M143.035 272.013C78.5375 272.013 26.2524 219.728 26.2524 155.231C26.2524 125.209 37.5853 97.837 56.2007 77.1484C35.5711 98.2665 22.8511 127.145 22.8511 159C22.8511 223.7 75.3002 276.149 140 276.149C180.954 276.149 216.993 255.129 237.936 223.293C216.739 252.795 182.133 272.013 143.035 272.013Z" fill="url(#paint3_linear_0_1)"/>
<path d="M140 67.8352C138.121 67.8352 136.598 66.3122 136.598 64.433V58.3181C136.598 56.4397 138.121 54.9167 140 54.9167C141.878 54.9167 143.402 56.4397 143.402 58.3181V64.433C143.401 66.3122 141.878 67.8352 140 67.8352ZM143.401 259.683V253.568C143.401 251.69 141.878 250.166 139.999 250.166C138.121 250.166 136.598 251.689 136.598 253.568V259.683C136.598 261.561 138.121 263.084 139.999 263.084C141.878 263.084 143.401 261.561 143.401 259.683ZM95.6621 75.4017L92.6047 70.106C91.6655 68.479 89.5852 67.9217 87.9582 68.8608C86.3311 69.8 85.7738 71.8804 86.7129 73.5074L89.7704 78.803C90.7096 80.4301 92.7899 80.9874 94.417 80.0482C96.044 79.109 96.6013 77.0287 95.6621 75.4017ZM193.287 244.493L190.229 239.197C189.29 237.57 187.21 237.013 185.583 237.952C183.956 238.891 183.398 240.971 184.337 242.598L187.395 247.894C188.334 249.521 190.414 250.078 192.041 249.139C193.668 248.2 194.226 246.12 193.287 244.493ZM59.8028 108.771L54.5071 105.713C52.8801 104.774 50.7998 105.331 49.8606 106.958C48.9214 108.585 49.4787 110.666 51.1058 111.605L56.4014 114.662C58.0285 115.602 60.1088 115.044 61.048 113.417C61.9871 111.79 61.4298 109.71 59.8028 108.771ZM228.894 206.395L223.598 203.338C221.971 202.399 219.891 202.956 218.952 204.583C218.012 206.21 218.57 208.29 220.197 209.229L225.492 212.287C227.12 213.226 229.2 212.669 230.139 211.042C231.078 209.416 230.521 207.335 228.894 206.395ZM45.4327 155.599H39.3179C37.4395 155.599 35.9165 157.122 35.9165 159C35.9165 160.878 37.4395 162.402 39.3179 162.402H45.4327C47.3111 162.402 48.8341 160.879 48.8341 159C48.8341 157.122 47.3111 155.599 45.4327 155.599ZM240.682 155.599H234.567C232.688 155.599 231.165 157.122 231.165 159C231.165 160.878 232.688 162.402 234.567 162.402H240.682C242.56 162.402 244.083 160.879 244.083 159C244.084 157.122 242.561 155.599 240.682 155.599ZM56.4014 203.338L51.1058 206.395C49.4787 207.334 48.9214 209.415 49.8606 211.042C50.7998 212.669 52.8801 213.226 54.5071 212.287L59.8028 209.229C61.4298 208.29 61.9871 206.21 61.048 204.583C60.1088 202.956 58.0285 202.399 56.4014 203.338ZM225.492 105.713L220.197 108.771C218.57 109.71 218.012 111.79 218.952 113.417C219.891 115.044 221.971 115.602 223.598 114.662L228.894 111.605C230.521 110.666 231.078 108.585 230.139 106.958C229.2 105.331 227.12 104.774 225.492 105.713ZM89.7704 239.197L86.7129 244.493C85.7738 246.12 86.3311 248.2 87.9582 249.139C89.5852 250.078 91.6655 249.521 92.6047 247.894L95.6621 242.598C96.6013 240.971 96.044 238.891 94.417 237.952C92.7899 237.013 90.7096 237.57 89.7704 239.197ZM187.395 70.106L184.337 75.4017C183.398 77.0287 183.956 79.109 185.583 80.0482C187.21 80.9874 189.29 80.4301 190.229 78.803L193.287 73.5074C194.226 71.8804 193.668 69.8 192.041 68.8608C190.414 67.9217 188.334 68.479 187.395 70.106Z" fill="url(#paint4_linear_0_1)"/>
<path d="M175.694 209.749C176.564 209.131 176.911 208.118 176.476 207.47L142.635 157.043C142.602 156.993 142.564 156.946 142.523 156.902L135.39 149.443C134.881 148.912 133.877 148.949 133.061 149.529L132.802 149.713C131.986 150.293 131.621 151.231 131.957 151.885L136.662 161.071C136.689 161.125 136.722 161.176 136.758 161.224L173.286 209.739C173.754 210.364 174.825 210.367 175.694 209.749Z" fill="url(#paint5_linear_0_1)"/>
<path d="M206.398 102.393C206.17 102.128 205.348 102.464 204.551 103.148L142.419 156.433C142.357 156.485 142.296 156.539 142.237 156.595L132.163 165.997C131.445 166.667 131.062 167.364 131.277 167.613L131.344 167.692C131.559 167.941 132.3 167.66 133.063 167.043L143.774 158.38C143.837 158.329 143.9 158.277 143.96 158.223L205.388 104.12C206.177 103.424 206.626 102.657 206.398 102.393Z" fill="url(#paint6_linear_0_1)"/>
<path d="M59.1892 130.832C58.8338 131.838 59.3514 132.944 60.3541 133.32L138.429 162.652C138.507 162.681 138.586 162.705 138.667 162.724L152.389 165.993C153.367 166.225 154.363 165.686 154.696 164.742L154.802 164.441C155.135 163.497 154.701 162.453 153.793 162.019L141.063 155.941C140.988 155.906 140.911 155.874 140.832 155.848L61.6584 129.626C60.6434 129.29 59.5446 129.825 59.1892 130.832Z" fill="url(#paint7_linear_0_1)"/>
<path d="M145.307 159C145.307 161.931 142.931 164.307 140 164.307C137.069 164.307 134.693 161.931 134.693 159C134.693 156.07 137.069 153.693 140 153.693C142.931 153.694 145.307 156.07 145.307 159Z" fill="url(#paint8_linear_0_1)"/>
<path d="M374 299C451.32 299 514 236.32 514 159C514 81.6801 451.32 19 374 19C296.68 19 234 81.6801 234 159C234 236.32 296.68 299 374 299Z" fill="url(#paint9_linear_0_1)"/>
<path d="M374 292.928C447.966 292.928 507.928 232.967 507.928 159C507.928 85.0335 447.966 25.0718 374 25.0718C300.033 25.0718 240.071 85.0335 240.071 159C240.071 232.967 300.033 292.928 374 292.928Z" fill="url(#paint10_linear_0_1)"/>
<path d="M374 276.149C438.7 276.149 491.149 223.7 491.149 159C491.149 94.3005 438.7 41.8511 374 41.8511C309.301 41.8511 256.851 94.3005 256.851 159C256.851 223.7 309.301 276.149 374 276.149Z" fill="url(#paint11_linear_0_1)"/>
<path d="M377.035 272.013C312.537 272.013 260.252 219.728 260.252 155.231C260.252 125.209 271.585 97.837 290.201 77.1484C269.571 98.2665 256.851 127.145 256.851 159C256.851 223.7 309.3 276.149 374 276.149C414.954 276.149 450.993 255.129 471.936 223.293C450.739 252.795 416.133 272.013 377.035 272.013Z" fill="url(#paint12_linear_0_1)"/>
<path d="M374 67.8352C372.121 67.8352 370.598 66.3122 370.598 64.433V58.3181C370.598 56.4397 372.121 54.9167 374 54.9167C375.878 54.9167 377.402 56.4397 377.402 58.3181V64.433C377.401 66.3122 375.878 67.8352 374 67.8352ZM377.401 259.683V253.568C377.401 251.69 375.878 250.166 373.999 250.166C372.121 250.166 370.598 251.689 370.598 253.568V259.683C370.598 261.561 372.121 263.084 373.999 263.084C375.878 263.084 377.401 261.561 377.401 259.683ZM329.662 75.4017L326.605 70.106C325.666 68.479 323.585 67.9217 321.958 68.8608C320.331 69.8 319.774 71.8804 320.713 73.5074L323.77 78.803C324.71 80.4301 326.79 80.9874 328.417 80.0482C330.044 79.109 330.601 77.0287 329.662 75.4017ZM427.287 244.493L424.229 239.197C423.29 237.57 421.21 237.013 419.583 237.952C417.956 238.891 417.398 240.971 418.337 242.598L421.395 247.894C422.334 249.521 424.414 250.078 426.041 249.139C427.668 248.2 428.226 246.12 427.287 244.493ZM293.803 108.771L288.507 105.713C286.88 104.774 284.8 105.331 283.861 106.958C282.921 108.585 283.479 110.666 285.106 111.605L290.401 114.662C292.028 115.602 294.109 115.044 295.048 113.417C295.987 111.79 295.43 109.71 293.803 108.771ZM462.894 206.395L457.598 203.338C455.971 202.399 453.891 202.956 452.952 204.583C452.012 206.21 452.57 208.29 454.197 209.229L459.492 212.287C461.12 213.226 463.2 212.669 464.139 211.042C465.078 209.416 464.521 207.335 462.894 206.395ZM279.433 155.599H273.318C271.439 155.599 269.917 157.122 269.917 159C269.917 160.878 271.439 162.402 273.318 162.402H279.433C281.311 162.402 282.834 160.879 282.834 159C282.834 157.122 281.311 155.599 279.433 155.599ZM474.682 155.599H468.567C466.688 155.599 465.165 157.122 465.165 159C465.165 160.878 466.688 162.402 468.567 162.402H474.682C476.56 162.402 478.083 160.879 478.083 159C478.084 157.122 476.561 155.599 474.682 155.599ZM290.401 203.338L285.106 206.395C283.479 207.334 282.921 209.415 283.861 211.042C284.8 212.669 286.88 213.226 288.507 212.287L293.803 209.229C295.43 208.29 295.987 206.21 295.048 204.583C294.109 202.956 292.028 202.399 290.401 203.338ZM459.492 105.713L454.197 108.771C452.57 109.71 452.012 111.79 452.952 113.417C453.891 115.044 455.971 115.602 457.598 114.662L462.894 111.605C464.521 110.666 465.078 108.585 464.139 106.958C463.2 105.331 461.12 104.774 459.492 105.713ZM323.77 239.197L320.713 244.493C319.774 246.12 320.331 248.2 321.958 249.139C323.585 250.078 325.666 249.521 326.605 247.894L329.662 242.598C330.601 240.971 330.044 238.891 328.417 237.952C326.79 237.013 324.71 237.57 323.77 239.197ZM421.395 70.106L418.337 75.4017C417.398 77.0287 417.956 79.109 419.583 80.0482C421.21 80.9874 423.29 80.4301 424.229 78.803L427.287 73.5074C428.226 71.8804 427.668 69.8 426.041 68.8608C424.414 67.9217 422.334 68.479 421.395 70.106Z" fill="url(#paint13_linear_0_1)"/>
<path d="M409.694 209.749C410.564 209.131 410.911 208.118 410.476 207.47L376.635 157.043C376.602 156.993 376.564 156.946 376.523 156.902L369.39 149.443C368.881 148.912 367.877 148.949 367.061 149.529L366.802 149.713C365.986 150.293 365.621 151.231 365.957 151.885L370.662 161.071C370.689 161.125 370.722 161.176 370.758 161.224L407.286 209.739C407.754 210.364 408.825 210.367 409.694 209.749Z" fill="url(#paint14_linear_0_1)"/>
<path d="M440.398 102.393C440.17 102.128 439.348 102.464 438.551 103.148L376.419 156.433C376.357 156.485 376.296 156.539 376.237 156.595L366.163 165.997C365.445 166.667 365.062 167.364 365.277 167.613L365.344 167.692C365.559 167.941 366.3 167.66 367.063 167.043L377.774 158.38C377.837 158.329 377.9 158.277 377.96 158.223L439.388 104.12C440.177 103.424 440.626 102.657 440.398 102.393Z" fill="url(#paint15_linear_0_1)"/>
<path d="M293.189 130.832C292.834 131.838 293.351 132.944 294.354 133.32L372.429 162.652C372.507 162.681 372.586 162.705 372.667 162.724L386.389 165.993C387.367 166.225 388.363 165.686 388.696 164.742L388.802 164.441C389.135 163.497 388.701 162.453 387.793 162.019L375.063 155.941C374.988 155.906 374.911 155.874 374.832 155.848L295.658 129.626C294.643 129.29 293.545 129.825 293.189 130.832Z" fill="url(#paint16_linear_0_1)"/>
<path d="M379.307 159C379.307 161.931 376.931 164.307 374 164.307C371.069 164.307 368.693 161.931 368.693 159C368.693 156.07 371.069 153.693 374 153.693C376.931 153.694 379.307 156.07 379.307 159Z" fill="url(#paint17_linear_0_1)"/>
<path d="M256.754 317.508C344.431 317.508 415.508 246.431 415.508 158.754C415.508 71.0766 344.431 0 256.754 0C169.077 0 98 71.0766 98 158.754C98 246.431 169.077 317.508 256.754 317.508Z" fill="url(#paint18_linear_0_1)"/>
<path d="M256.754 310.623C340.629 310.623 408.623 242.629 408.623 158.754C408.623 74.8791 340.629 6.88501 256.754 6.88501C172.879 6.88501 104.885 74.8791 104.885 158.754C104.885 242.629 172.879 310.623 256.754 310.623Z" fill="url(#paint19_linear_0_1)"/>
<path d="M256.754 291.596C330.121 291.596 389.596 232.121 389.596 158.754C389.596 85.3875 330.121 25.9121 256.754 25.9121C183.388 25.9121 123.912 85.3875 123.912 158.754C123.912 232.121 183.388 291.596 256.754 291.596Z" fill="url(#paint20_linear_0_1)"/>
<path d="M260.195 286.906C187.058 286.906 127.769 227.617 127.769 154.48C127.769 120.437 140.62 89.398 161.729 65.938C138.336 89.885 123.912 122.632 123.912 158.754C123.912 232.121 183.387 291.596 256.754 291.596C303.194 291.596 344.061 267.76 367.809 231.66C343.773 265.114 304.531 286.906 260.195 286.906Z" fill="url(#paint21_linear_0_1)"/>
<path d="M256.754 55.377C254.624 55.377 252.897 53.65 252.897 51.519V44.585C252.897 42.455 254.624 40.728 256.754 40.728C258.884 40.728 260.612 42.455 260.612 44.585V51.519C260.611 53.65 258.884 55.377 256.754 55.377ZM260.611 272.924V265.99C260.611 263.86 258.884 262.132 256.753 262.132C254.623 262.132 252.896 263.859 252.896 265.99V272.924C252.896 275.054 254.623 276.781 256.753 276.781C258.884 276.781 260.611 275.054 260.611 272.924ZM206.477 63.957L203.01 57.952C201.945 56.107 199.586 55.475 197.741 56.54C195.896 57.605 195.264 59.964 196.329 61.809L199.796 67.814C200.861 69.659 203.22 70.291 205.065 69.226C206.91 68.161 207.542 65.802 206.477 63.957ZM317.179 255.699L313.712 249.694C312.647 247.849 310.288 247.217 308.443 248.282C306.598 249.347 305.966 251.706 307.031 253.551L310.498 259.556C311.563 261.401 313.922 262.033 315.767 260.968C317.612 259.903 318.244 257.544 317.179 255.699ZM165.814 101.796L159.809 98.329C157.964 97.264 155.605 97.896 154.54 99.741C153.475 101.586 154.107 103.945 155.952 105.01L161.957 108.477C163.802 109.542 166.161 108.91 167.226 107.065C168.291 105.22 167.659 102.861 165.814 101.796ZM357.556 212.498L351.551 209.031C349.706 207.966 347.347 208.598 346.282 210.443C345.217 212.288 345.849 214.647 347.694 215.712L353.699 219.179C355.544 220.244 357.903 219.612 358.968 217.767C360.033 215.923 359.401 213.564 357.556 212.498ZM149.519 154.897H142.585C140.455 154.897 138.728 156.624 138.728 158.754C138.728 160.884 140.455 162.612 142.585 162.612H149.519C151.649 162.612 153.376 160.885 153.376 158.754C153.376 156.624 151.649 154.897 149.519 154.897ZM370.923 154.897H363.989C361.858 154.897 360.131 156.624 360.131 158.754C360.131 160.884 361.858 162.612 363.989 162.612H370.923C373.053 162.612 374.78 160.885 374.78 158.754C374.781 156.624 373.054 154.897 370.923 154.897ZM161.957 209.031L155.952 212.498C154.107 213.563 153.475 215.922 154.54 217.767C155.605 219.612 157.964 220.244 159.809 219.179L165.814 215.712C167.659 214.647 168.291 212.288 167.226 210.443C166.161 208.598 163.802 207.966 161.957 209.031ZM353.699 98.329L347.694 101.796C345.849 102.861 345.217 105.22 346.282 107.065C347.347 108.91 349.706 109.542 351.551 108.477L357.556 105.01C359.401 103.945 360.033 101.586 358.968 99.741C357.903 97.896 355.544 97.264 353.699 98.329ZM199.796 249.694L196.329 255.699C195.264 257.544 195.896 259.903 197.741 260.968C199.586 262.033 201.945 261.401 203.01 259.556L206.477 253.551C207.542 251.706 206.91 249.347 205.065 248.282C203.22 247.217 200.861 247.849 199.796 249.694ZM310.498 57.952L307.031 63.957C305.966 65.802 306.598 68.161 308.443 69.226C310.288 70.291 312.647 69.659 313.712 67.814L317.179 61.809C318.244 59.964 317.612 57.605 315.767 56.54C313.922 55.475 311.563 56.107 310.498 57.952Z" fill="url(#paint22_linear_0_1)"/>
<path d="M297.23 216.301C298.216 215.6 298.61 214.451 298.117 213.717L259.743 156.535C259.705 156.478 259.662 156.425 259.615 156.375L251.527 147.917C250.95 147.314 249.811 147.356 248.886 148.014L248.592 148.223C247.667 148.881 247.253 149.944 247.634 150.686L252.969 161.102C253 161.163 253.037 161.221 253.078 161.276L294.499 216.29C295.03 216.998 296.245 217.002 297.23 216.301Z" fill="url(#paint23_linear_0_1)"/>
<path d="M332.046 94.5638C331.788 94.2638 330.856 94.6448 329.952 95.4208L259.497 155.843C259.427 155.903 259.358 155.964 259.291 156.027L247.867 166.689C247.053 167.449 246.619 168.239 246.862 168.521L246.939 168.611C247.182 168.893 248.023 168.575 248.888 167.875L261.034 158.051C261.105 157.993 261.176 157.934 261.245 157.873L330.901 96.5228C331.796 95.7338 332.305 94.8638 332.046 94.5638Z" fill="url(#paint24_linear_0_1)"/>
<path d="M165.118 126.812C164.715 127.953 165.302 129.207 166.439 129.634L254.973 162.895C255.061 162.928 255.151 162.955 255.242 162.977L270.803 166.683C271.912 166.947 273.041 166.335 273.419 165.265L273.539 164.924C273.917 163.853 273.424 162.669 272.395 162.177L257.959 155.285C257.874 155.245 257.787 155.209 257.698 155.18L167.918 125.445C166.767 125.064 165.521 125.671 165.118 126.812Z" fill="url(#paint25_linear_0_1)"/>
<path d="M262.772 158.754C262.772 162.078 260.078 164.772 256.754 164.772C253.43 164.772 250.736 162.078 250.736 158.754C250.736 155.431 253.43 152.736 256.754 152.736C260.078 152.737 262.772 155.431 262.772 158.754Z" fill="url(#paint26_linear_0_1)"/>
<defs>
<linearGradient id="paint0_linear_0_1" x1="41.0047" y1="257.996" x2="238.995" y2="60.0052" gradientUnits="userSpaceOnUse">
<stop stop-color="#510212"/>
<stop offset="0.1593" stop-color="#510212" stop-opacity="0.93"/>
<stop offset="0.5149" stop-color="#510212" stop-opacity="0.82"/>
<stop offset="0.8079" stop-color="#E10531"/>
<stop offset="1" stop-color="#FF0000"/>
</linearGradient>
<linearGradient id="paint1_linear_0_1" x1="45.2977" y1="253.702" x2="234.701" y2="64.2986" gradientUnits="userSpaceOnUse">
<stop stop-color="#E10531"/>
<stop offset="0.1126" stop-color="#E10531" stop-opacity="0.93"/>
<stop offset="0.488" stop-color="#FF0000" stop-opacity="0.75"/>
<stop offset="0.7972" stop-color="#FF6382"/>
<stop offset="1" stop-color="#FF6382" stop-opacity="0.91"/>
</linearGradient>
<linearGradient id="paint2_linear_0_1" x1="57.1629" y1="241.838" x2="222.837" y2="76.1633" gradientUnits="userSpaceOnUse">
<stop stop-color="#FFDEE4"/>
<stop offset="0.1367" stop-color="#FFDCE3"/>
<stop offset="0.5019" stop-color="#FFF4F6"/>
<stop offset="0.8028" stop-color="#FFEDF1"/>
<stop offset="1" stop-color="#FFE6EB"/>
</linearGradient>
<linearGradient id="paint3_linear_0_1" x1="57.1661" y1="241.84" x2="156.824" y2="142.183" gradientUnits="userSpaceOnUse">
<stop stop-color="#FF6382"/>
<stop offset="0.1367" stop-color="#FF6382" stop-opacity="0.93"/>
<stop offset="0.5019" stop-color="#FF6382" stop-opacity="0.83"/>
<stop offset="0.8028" stop-color="#FF6382" stop-opacity="0.66"/>
<stop offset="1" stop-color="#FF8BA2"/>
</linearGradient>
<linearGradient id="paint4_linear_0_1" x1="35.9158" y1="159" x2="244.084" y2="159" gradientUnits="userSpaceOnUse">
<stop stop-color="#E10531"/>
<stop offset="0.1593" stop-color="#E10531" stop-opacity="0.93"/>
<stop offset="0.5149" stop-color="#FF0000"/>
<stop offset="0.8079" stop-color="#FF6382"/>
<stop offset="1" stop-color="#FF6382" stop-opacity="0.93"/>
</linearGradient>
<linearGradient id="paint5_linear_0_1" x1="131.832" y1="179.639" x2="176.664" y2="179.639" gradientUnits="userSpaceOnUse">
<stop stop-color="#E10531"/>
<stop offset="0.1593" stop-color="#E10531" stop-opacity="0.91"/>
<stop offset="0.5149" stop-color="#E10531" stop-opacity="0.86"/>
<stop offset="0.8079" stop-color="#FF6382"/>
<stop offset="1" stop-color="#FF6382" stop-opacity="0.94"/>
</linearGradient>
<linearGradient id="paint6_linear_0_1" x1="131.218" y1="135.042" x2="206.457" y2="135.042" gradientUnits="userSpaceOnUse">
<stop stop-color="#E10531"/>
<stop offset="0.1443" stop-color="#E10531" stop-opacity="0.92"/>
<stop offset="0.5063" stop-color="#E10531" stop-opacity="0.86"/>
<stop offset="0.8045" stop-color="#FF6382"/>
<stop offset="1" stop-color="#FF6382" stop-opacity="0.93"/>
</linearGradient>
<linearGradient id="paint7_linear_0_1" x1="59.0775" y1="147.787" x2="154.915" y2="147.787" gradientUnits="userSpaceOnUse">
<stop stop-color="#E10531"/>
<stop offset="0.1593" stop-color="#E10531" stop-opacity="0.9"/>
<stop offset="0.5149" stop-color="#E10531" stop-opacity="0.81"/>
<stop offset="0.8079" stop-color="#FF6382"/>
<stop offset="1" stop-color="#FF6382" stop-opacity="0.94"/>
</linearGradient>
<linearGradient id="paint8_linear_0_1" x1="134.693" y1="159" x2="145.307" y2="159" gradientUnits="userSpaceOnUse">
<stop stop-color="#E10531"/>
<stop offset="0.1443" stop-color="#E10531" stop-opacity="0.93"/>
<stop offset="0.5063" stop-color="#E10531" stop-opacity="0.84"/>
<stop offset="0.8045" stop-color="#FF6382"/>
<stop offset="1" stop-color="#FF6382" stop-opacity="0.91"/>
</linearGradient>
<linearGradient id="paint9_linear_0_1" x1="275.005" y1="257.996" x2="472.995" y2="60.0052" gradientUnits="userSpaceOnUse">
<stop stop-color="#510212"/>
<stop offset="0.1593" stop-color="#510212" stop-opacity="0.93"/>
<stop offset="0.5149" stop-color="#510212" stop-opacity="0.82"/>
<stop offset="0.8079" stop-color="#E10531"/>
<stop offset="1" stop-color="#FF0000"/>
</linearGradient>
<linearGradient id="paint10_linear_0_1" x1="279.298" y1="253.702" x2="468.701" y2="64.2986" gradientUnits="userSpaceOnUse">
<stop stop-color="#E10531"/>
<stop offset="0.1126" stop-color="#E10531" stop-opacity="0.93"/>
<stop offset="0.488" stop-color="#FF0000" stop-opacity="0.75"/>
<stop offset="0.7972" stop-color="#FF6382"/>
<stop offset="1" stop-color="#FF6382" stop-opacity="0.91"/>
</linearGradient>
<linearGradient id="paint11_linear_0_1" x1="291.163" y1="241.838" x2="456.837" y2="76.1633" gradientUnits="userSpaceOnUse">
<stop stop-color="#FFDEE4"/>
<stop offset="0.1367" stop-color="#FFDCE3"/>
<stop offset="0.5019" stop-color="#FFF4F6"/>
<stop offset="0.8028" stop-color="#FFEDF1"/>
<stop offset="1" stop-color="#FFE6EB"/>
</linearGradient>
<linearGradient id="paint12_linear_0_1" x1="291.166" y1="241.84" x2="390.824" y2="142.183" gradientUnits="userSpaceOnUse">
<stop stop-color="#FF6382"/>
<stop offset="0.1367" stop-color="#FF6382" stop-opacity="0.93"/>
<stop offset="0.5019" stop-color="#FF6382" stop-opacity="0.83"/>
<stop offset="0.8028" stop-color="#FF6382" stop-opacity="0.66"/>
<stop offset="1" stop-color="#FF8BA2"/>
</linearGradient>
<linearGradient id="paint13_linear_0_1" x1="269.916" y1="159" x2="478.084" y2="159" gradientUnits="userSpaceOnUse">
<stop stop-color="#E10531"/>
<stop offset="0.1593" stop-color="#E10531" stop-opacity="0.93"/>
<stop offset="0.5149" stop-color="#FF0000"/>
<stop offset="0.8079" stop-color="#FF6382"/>
<stop offset="1" stop-color="#FF6382" stop-opacity="0.93"/>
</linearGradient>
<linearGradient id="paint14_linear_0_1" x1="365.832" y1="179.639" x2="410.664" y2="179.639" gradientUnits="userSpaceOnUse">
<stop stop-color="#E10531"/>
<stop offset="0.1593" stop-color="#E10531" stop-opacity="0.91"/>
<stop offset="0.5149" stop-color="#E10531" stop-opacity="0.86"/>
<stop offset="0.8079" stop-color="#FF6382"/>
<stop offset="1" stop-color="#FF6382" stop-opacity="0.94"/>
</linearGradient>
<linearGradient id="paint15_linear_0_1" x1="365.218" y1="135.042" x2="440.457" y2="135.042" gradientUnits="userSpaceOnUse">
<stop stop-color="#E10531"/>
<stop offset="0.1443" stop-color="#E10531" stop-opacity="0.92"/>
<stop offset="0.5063" stop-color="#E10531" stop-opacity="0.86"/>
<stop offset="0.8045" stop-color="#FF6382"/>
<stop offset="1" stop-color="#FF6382" stop-opacity="0.93"/>
</linearGradient>
<linearGradient id="paint16_linear_0_1" x1="293.078" y1="147.787" x2="388.915" y2="147.787" gradientUnits="userSpaceOnUse">
<stop stop-color="#E10531"/>
<stop offset="0.1593" stop-color="#E10531" stop-opacity="0.9"/>
<stop offset="0.5149" stop-color="#E10531" stop-opacity="0.81"/>
<stop offset="0.8079" stop-color="#FF6382"/>
<stop offset="1" stop-color="#FF6382" stop-opacity="0.94"/>
</linearGradient>
<linearGradient id="paint17_linear_0_1" x1="368.693" y1="159" x2="379.307" y2="159" gradientUnits="userSpaceOnUse">
<stop stop-color="#E10531"/>
<stop offset="0.1443" stop-color="#E10531" stop-opacity="0.93"/>
<stop offset="0.5063" stop-color="#E10531" stop-opacity="0.84"/>
<stop offset="0.8045" stop-color="#FF6382"/>
<stop offset="1" stop-color="#FF6382" stop-opacity="0.91"/>
</linearGradient>
<linearGradient id="paint18_linear_0_1" x1="144.498" y1="271.011" x2="369.01" y2="46.4981" gradientUnits="userSpaceOnUse">
<stop stop-color="#510212"/>
<stop offset="0.1593" stop-color="#510212" stop-opacity="0.93"/>
<stop offset="0.5149" stop-color="#510212" stop-opacity="0.82"/>
<stop offset="0.8079" stop-color="#E10531"/>
<stop offset="1" stop-color="#FF0000"/>
</linearGradient>
<linearGradient id="paint19_linear_0_1" x1="149.366" y1="266.142" x2="364.141" y2="51.3666" gradientUnits="userSpaceOnUse">
<stop stop-color="#E10531"/>
<stop offset="0.1126" stop-color="#E10531" stop-opacity="0.93"/>
<stop offset="0.488" stop-color="#FF0000" stop-opacity="0.75"/>
<stop offset="0.7972" stop-color="#FF6382"/>
<stop offset="1" stop-color="#FF6382" stop-opacity="0.91"/>
</linearGradient>
<linearGradient id="paint20_linear_0_1" x1="162.82" y1="252.688" x2="350.688" y2="64.8207" gradientUnits="userSpaceOnUse">
<stop stop-color="#FFDEE4"/>
<stop offset="0.1367" stop-color="#FFDCE3"/>
<stop offset="0.5019" stop-color="#FFF4F6"/>
<stop offset="0.8028" stop-color="#FFEDF1"/>
<stop offset="1" stop-color="#FFE6EB"/>
</linearGradient>
<linearGradient id="paint21_linear_0_1" x1="162.824" y1="252.692" x2="275.832" y2="139.684" gradientUnits="userSpaceOnUse">
<stop stop-color="#FF6382"/>
<stop offset="0.1367" stop-color="#FF6382" stop-opacity="0.93"/>
<stop offset="0.5019" stop-color="#FF6382" stop-opacity="0.83"/>
<stop offset="0.8028" stop-color="#FF6382" stop-opacity="0.66"/>
<stop offset="1" stop-color="#FF8BA2"/>
</linearGradient>
<linearGradient id="paint22_linear_0_1" x1="138.727" y1="158.754" x2="374.781" y2="158.754" gradientUnits="userSpaceOnUse">
<stop stop-color="#E10531"/>
<stop offset="0.1593" stop-color="#E10531" stop-opacity="0.93"/>
<stop offset="0.5149" stop-color="#FF0000"/>
<stop offset="0.8079" stop-color="#FF6382"/>
<stop offset="1" stop-color="#FF6382" stop-opacity="0.93"/>
</linearGradient>
<linearGradient id="paint23_linear_0_1" x1="247.492" y1="182.158" x2="298.329" y2="182.158" gradientUnits="userSpaceOnUse">
<stop stop-color="#E10531"/>
<stop offset="0.1593" stop-color="#E10531" stop-opacity="0.91"/>
<stop offset="0.5149" stop-color="#E10531" stop-opacity="0.86"/>
<stop offset="0.8079" stop-color="#FF6382"/>
<stop offset="1" stop-color="#FF6382" stop-opacity="0.94"/>
</linearGradient>
<linearGradient id="paint24_linear_0_1" x1="246.795" y1="131.586" x2="332.114" y2="131.586" gradientUnits="userSpaceOnUse">
<stop stop-color="#E10531"/>
<stop offset="0.1443" stop-color="#E10531" stop-opacity="0.92"/>
<stop offset="0.5063" stop-color="#E10531" stop-opacity="0.86"/>
<stop offset="0.8045" stop-color="#FF6382"/>
<stop offset="1" stop-color="#FF6382" stop-opacity="0.93"/>
</linearGradient>
<linearGradient id="paint25_linear_0_1" x1="164.992" y1="146.039" x2="273.668" y2="146.039" gradientUnits="userSpaceOnUse">
<stop stop-color="#E10531"/>
<stop offset="0.1593" stop-color="#E10531" stop-opacity="0.9"/>
<stop offset="0.5149" stop-color="#E10531" stop-opacity="0.81"/>
<stop offset="0.8079" stop-color="#FF6382"/>
<stop offset="1" stop-color="#FF6382" stop-opacity="0.94"/>
</linearGradient>
<linearGradient id="paint26_linear_0_1" x1="250.736" y1="158.754" x2="262.772" y2="158.754" gradientUnits="userSpaceOnUse">
<stop stop-color="#E10531"/>
<stop offset="0.1443" stop-color="#E10531" stop-opacity="0.93"/>
<stop offset="0.5063" stop-color="#E10531" stop-opacity="0.84"/>
<stop offset="0.8045" stop-color="#FF6382"/>
<stop offset="1" stop-color="#FF6382" stop-opacity="0.91"/>
</linearGradient>
</defs>
</svg>
