<svg viewBox="0 0 40 33" fill="none" xmlns="http://www.w3.org/2000/svg">
<path d="M39.8239 3.91425C38.5301 4.47054 37.1705 4.859 35.7781 5.07019C36.4314 5.07019 37.3864 3.78861 37.7633 3.31116C38.3716 2.56764 38.8322 1.7147 39.1203 0.798263C39.1203 0.798263 39.1203 0.647485 39.1203 0.597227C39.0897 0.579583 39.055 0.57029 39.0198 0.57029C38.9845 0.57029 38.9498 0.579583 38.9192 0.597227C37.3953 1.41097 35.774 2.0274 34.0945 2.43165C34.0448 2.46032 33.9884 2.4754 33.9311 2.4754C33.8738 2.4754 33.8175 2.46032 33.7678 2.43165C33.647 2.2774 33.5124 2.1344 33.3657 2.00444C32.6635 1.41833 31.8752 0.943714 31.0287 0.597227C29.8998 0.131925 28.6785 -0.0658776 27.4604 0.0192707C26.2751 0.0961472 25.1193 0.421485 24.068 0.974166C22.9916 1.53022 22.0452 2.30823 21.2915 3.25685C20.5378 4.20547 19.9939 5.30314 19.6955 6.47742C19.4694 7.61384 19.4694 8.78366 19.6955 9.92008C19.6955 10.1211 19.6955 10.1462 19.5196 10.1211C13.1598 9.46999 7.27212 6.46792 3.0099 1.70291C2.83399 1.50188 2.73348 1.50188 2.55757 1.70291C1.70212 3.28839 1.37951 5.10706 1.63746 6.89004C1.8954 8.67302 2.7202 10.3257 3.98993 11.6037C4.3166 11.9053 4.64326 12.2068 4.99507 12.4832C3.8929 12.3965 2.81785 12.0978 1.82883 11.6037C1.6278 11.6037 1.52729 11.6037 1.50216 11.7545C1.47822 12.0724 1.47822 12.3916 1.50216 12.7094C1.69279 14.1928 2.27516 15.5987 3.1894 16.7823C4.10364 17.966 5.31674 18.8847 6.70386 19.444C7.0386 19.6018 7.39389 19.7118 7.75927 19.7706C6.72884 19.9556 5.6737 19.9556 4.64327 19.7706C4.4171 19.7706 4.3166 19.7707 4.41711 20.0722C4.95247 21.4688 5.83612 22.7053 6.98408 23.6642C8.13203 24.623 9.50614 25.2723 10.9758 25.5503C11.2773 25.5503 11.5789 25.5503 11.8804 25.5503C11.8804 25.5503 12.182 25.5503 11.8804 25.5503C10.599 26.7021 9.05446 27.5218 7.38236 27.9376C5.20215 28.7176 2.87921 29.0176 0.57238 28.8171C0.220574 28.8171 0.14519 28.8171 0.0446738 28.8171C-0.0558422 28.8171 0.0446738 28.9679 0.0446738 29.0432C0.498902 29.3518 0.968582 29.637 1.45189 29.8976C2.89899 30.6616 4.42383 31.2681 6.00025 31.7069C10.0631 32.9324 14.3766 33.0691 18.5089 32.1033C22.6412 31.1374 26.4473 29.103 29.5461 26.2037C31.7563 23.8167 33.4716 21.0154 34.593 17.9617C35.7144 14.908 36.2197 11.6624 36.0797 8.41235C36.0797 8.16106 36.3812 8.01028 36.5822 7.88464C37.8011 6.92977 38.876 5.80413 39.7736 4.54248C39.9242 4.3683 40.0048 4.14444 39.9998 3.91425C39.9998 3.91425 39.9998 3.83887 39.8239 3.91425Z" fill="white"/>
</svg>
